<?xml version="1.0" encoding="utf-8"?>
<!-- Generator: Adobe Illustrator 26.4.1, SVG Export Plug-In . SVG Version: 6.00 Build 0)  -->
<svg version="1.1" xmlns="http://www.w3.org/2000/svg" xmlns:xlink="http://www.w3.org/1999/xlink" x="0px" y="0px"
	 viewBox="0 0 595.28 841.89" style="enable-background:new 0 0 595.28 841.89;" xml:space="preserve">
<style type="text/css">
	.st0{fill:#40220F;}
	.st1{fill:none;stroke:#000000;stroke-width:6;stroke-linecap:round;stroke-linejoin:round;stroke-miterlimit:10;}
	.st2{fill:#FFFFFF;stroke:#000000;stroke-width:6;stroke-miterlimit:10;}
	.st3{fill:#7F4F21;}
	.st4{fill:none;stroke:#000000;stroke-width:6;stroke-miterlimit:10;}
	.st5{fill:#956134;stroke:#000000;stroke-width:5.5809;stroke-miterlimit:10;}
	.st6{fill:#8FC31F;stroke:#000000;stroke-width:6;stroke-linejoin:round;stroke-miterlimit:10;}
	.st7{fill:#FFFFFF;stroke:#000000;stroke-width:5.9753;stroke-miterlimit:10;}
	.st8{fill:none;stroke:#000000;stroke-miterlimit:10;}
	.st9{fill:none;stroke:#000000;stroke-width:5.0062;stroke-miterlimit:10;}
	.st10{fill:none;stroke:#000000;stroke-width:4.2731;stroke-miterlimit:10;}
	.st11{fill:none;stroke:#000000;stroke-width:1.1108;stroke-miterlimit:10;}
	.st12{fill:#F7E2D3;stroke:#000000;stroke-width:6;stroke-miterlimit:10;}
	.st13{fill:#625146;}
	.st14{fill:none;stroke:#3A2C2A;stroke-width:6;stroke-miterlimit:10;}
	.st15{fill:#625146;stroke:#3A2C2A;stroke-width:6;stroke-miterlimit:10;}
	.st16{fill:#818C64;stroke:#4B4C4B;stroke-width:6;stroke-linejoin:round;stroke-miterlimit:10;}
	.st17{fill:#060404;stroke:#000000;stroke-width:5.9753;stroke-miterlimit:10;}
	.st18{fill:#040000;stroke:#000000;stroke-width:5.9753;stroke-miterlimit:10;}
	.st19{fill:#393433;}
	.st20{fill:#5C3F69;}
	.st21{fill:#9B839A;}
	.st22{fill:#3B3B38;}
	.st23{fill:#4A423F;}
	.st24{fill:#DFD8D1;}
	.st25{fill:#534F52;}
	.st26{fill:#FFFFFF;}
	.st27{fill:#A881B8;}
	.st28{fill:#856E5A;}
	.st29{fill:#283331;}
	.st30{fill:#6C6952;}
	.st31{fill:#A7A177;}
	.st32{fill:#898652;}
	.st33{fill:#ACA5A0;}
	.st34{fill:#74646F;}
	.st35{fill:#B4B0A7;}
	.st36{fill:#DBD5CA;}
	.st37{fill:#3E3B37;}
	.st38{fill:#373135;}
	.st39{fill:#DAE000;}
	.st40{fill:none;stroke:#424B32;stroke-width:6;stroke-miterlimit:10;}
</style>
<g id="레이어_3">
	<g>
		<path class="st0" d="M386.28,453.19c0,14.27-11.67,25.94-25.94,25.94H243.98c-14.27,0-25.94-11.67-25.94-25.94v-68.35
			c0-14.27,11.67-25.94,25.94-25.94h116.35c14.27,0,25.94,11.67,25.94,25.94V453.19z"/>
		<path class="st1" d="M386.28,453.19c0,14.27-11.67,25.94-25.94,25.94H243.98c-14.27,0-25.94-11.67-25.94-25.94v-68.35
			c0-14.27,11.67-25.94,25.94-25.94h116.35c14.27,0,25.94,11.67,25.94,25.94V453.19z"/>
	</g>
</g>
<g id="레이어_1">
	<path class="st2" d="M377.16,420.7c0,41.42-33.58,65-75,65s-75-23.58-75-65s33.58-75,75-75S377.16,379.28,377.16,420.7z"/>
	<g>
		<path class="st3" d="M400.45,404.2c0.94,2.58-0.54,4.7-3.29,4.7h-190c-2.75,0-4.23-2.11-3.29-4.7l5.67-15.6
			c0.94-2.58,3.96-4.7,6.71-4.7h171.82c2.75,0,5.77,2.11,6.71,4.7L400.45,404.2z"/>
		<path class="st4" d="M400.45,404.2c0.94,2.58-0.54,4.7-3.29,4.7h-190c-2.75,0-4.23-2.11-3.29-4.7l5.67-15.6
			c0.94-2.58,3.96-4.7,6.71-4.7h171.82c2.75,0,5.77,2.11,6.71,4.7L400.45,404.2z"/>
	</g>
	<path class="st5" d="M216.12,383.9c0-43.25,38.45-78.31,85.87-78.31s85.87,35.06,85.87,78.31H216.12z"/>
	<g>
		<path class="st6" d="M369.58,329.32v22.79l24.65-24.41c-0.44-13.46-6.26-25.54-15.39-34.19l-9.26,12.13V329.32z"/>
		<path class="st6" d="M369.58,305.64v-19.06c-7.8,4.51-14.25,11.1-18.6,19l18.6,23.73V305.64z"/>
		<path class="st6" d="M378.84,293.51c-2.8-2.65-5.9-4.98-9.26-6.93v19.06L378.84,293.51z"/>
		<path class="st6" d="M369.58,352.1v-22.79l-18.6-23.73c-3.87,7.04-6.08,15.13-6.08,23.73c0,3.69,0.41,7.29,1.18,10.75l23.5,24.85
			V352.1z"/>
		<path class="st6" d="M369.58,352.1v12.82v7.13c14.75-8.53,24.68-24.47,24.68-42.74c0-0.54-0.01-1.08-0.03-1.62L369.58,352.1z"/>
		<path class="st6" d="M346.09,340.07c3.04,13.65,11.73,25.18,23.5,31.99v-7.13L346.09,340.07z"/>
	</g>
	<circle class="st7" cx="265.03" cy="434.56" r="5.04"/>
	<circle class="st7" cx="336.47" cy="434.56" r="5.04"/>
	<g>
		<path d="M300.27,466.7c-6.15,0-12.29-1.76-17.65-5.28c-1.38-0.91-1.76-2.76-0.86-4.14c0.91-1.38,2.76-1.76,4.14-0.86
			c8.73,5.74,20.02,5.74,28.75,0c1.38-0.91,3.23-0.52,4.14,0.86c0.91,1.38,0.52,3.23-0.86,4.14
			C312.56,464.94,306.42,466.7,300.27,466.7z"/>
	</g>
</g>
<g id="레이어_1_사본">
	<path class="st12" d="M377.16,420.7c0,41.42-33.58,65-75,65s-75-23.58-75-65s33.58-75,75-75S377.16,379.28,377.16,420.7z"/>
	<g>
		<path class="st13" d="M400.45,404.2c0.94,2.58-0.54,4.7-3.29,4.7h-190c-2.75,0-4.23-2.11-3.29-4.7l5.67-15.6
			c0.94-2.58,3.96-4.7,6.71-4.7h171.82c2.75,0,5.77,2.11,6.71,4.7L400.45,404.2z"/>
		<path class="st14" d="M400.45,404.2c0.94,2.58-0.54,4.7-3.29,4.7h-190c-2.75,0-4.23-2.11-3.29-4.7l5.67-15.6
			c0.94-2.58,3.96-4.7,6.71-4.7h171.82c2.75,0,5.77,2.11,6.71,4.7L400.45,404.2z"/>
	</g>
	<path class="st15" d="M216.12,383.9c0-43.25,38.45-78.31,85.87-78.31s85.87,35.06,85.87,78.31H216.12z"/>
	<g>
		<path class="st16" d="M369.58,329.32v22.79l24.65-24.41c-0.44-13.46-6.26-25.54-15.39-34.19l-9.26,12.13V329.32z"/>
		<path class="st16" d="M369.58,305.64v-19.06c-7.8,4.51-14.25,11.1-18.6,19l18.6,23.73V305.64z"/>
		<path class="st16" d="M378.84,293.51c-2.8-2.65-5.9-4.98-9.26-6.93v19.06L378.84,293.51z"/>
		<path class="st16" d="M369.58,352.1v-22.79l-18.6-23.73c-3.87,7.04-6.08,15.13-6.08,23.73c0,3.69,0.41,7.29,1.18,10.75l23.5,24.85
			V352.1z"/>
		<path class="st16" d="M369.58,352.1v12.82v7.13c14.75-8.53,24.68-24.47,24.68-42.74c0-0.54-0.01-1.08-0.03-1.62L369.58,352.1z"/>
		<path class="st16" d="M346.09,340.07c3.04,13.65,11.73,25.18,23.5,31.99v-7.13L346.09,340.07z"/>
	</g>
	<circle class="st17" cx="265.03" cy="434.56" r="5.04"/>
	<circle class="st18" cx="336.47" cy="434.56" r="5.04"/>
	<g>
		<path d="M300.27,466.7c-6.15,0-12.29-1.76-17.65-5.28c-1.38-0.91-1.76-2.76-0.86-4.14c0.91-1.38,2.76-1.76,4.14-0.86
			c8.73,5.74,20.02,5.74,28.75,0c1.38-0.91,3.23-0.52,4.14,0.86c0.91,1.38,0.52,3.23-0.86,4.14
			C312.56,464.94,306.42,466.7,300.27,466.7z"/>
	</g>
</g>
<g id="레이어_2">
	<g>
		<g>
			<path class="st39" d="M271.64,358.9c-4.91,0-11.22,5.46-14.03,12.14l-0.31,0.73c-2.8,6.68-1.08,12.14,3.83,12.14
				s11.22-5.46,14.03-12.14l0.31-0.73C278.28,364.36,276.55,358.9,271.64,358.9z"/>
			<path class="st40" d="M271.64,358.9c-4.91,0-11.22,5.46-14.03,12.14l-0.31,0.73c-2.8,6.68-1.08,12.14,3.83,12.14
				s11.22-5.46,14.03-12.14l0.31-0.73C278.28,364.36,276.55,358.9,271.64,358.9z"/>
		</g>
		<g>
			<path class="st39" d="M253.78,358.9c-4.91,0-11.22,5.46-14.03,12.14l-0.31,0.73c-2.8,6.68-1.08,12.14,3.83,12.14
				s11.22-5.46,14.03-12.14l0.31-0.73C260.41,364.36,258.69,358.9,253.78,358.9z"/>
			<path class="st40" d="M253.78,358.9c-4.91,0-11.22,5.46-14.03,12.14l-0.31,0.73c-2.8,6.68-1.08,12.14,3.83,12.14
				s11.22-5.46,14.03-12.14l0.31-0.73C260.41,364.36,258.69,358.9,253.78,358.9z"/>
		</g>
		<g>
			<path class="st39" d="M307.36,358.9c-4.91,0-11.22,5.46-14.03,12.14l-0.31,0.73c-2.8,6.68-1.08,12.14,3.83,12.14
				s11.22-5.46,14.03-12.14l0.31-0.73C314,364.36,312.27,358.9,307.36,358.9z"/>
			<path class="st40" d="M307.36,358.9c-4.91,0-11.22,5.46-14.03,12.14l-0.31,0.73c-2.8,6.68-1.08,12.14,3.83,12.14
				s11.22-5.46,14.03-12.14l0.31-0.73C314,364.36,312.27,358.9,307.36,358.9z"/>
		</g>
		<g>
			<path class="st39" d="M235.92,358.9c-4.91,0-11.22,5.46-14.03,12.14l-0.31,0.73c-2.8,6.68-1.08,12.14,3.83,12.14
				s11.22-5.46,14.03-12.14l0.31-0.73C242.55,364.36,240.83,358.9,235.92,358.9z"/>
			<path class="st40" d="M235.92,358.9c-4.91,0-11.22,5.46-14.03,12.14l-0.31,0.73c-2.8,6.68-1.08,12.14,3.83,12.14
				s11.22-5.46,14.03-12.14l0.31-0.73C242.55,364.36,240.83,358.9,235.92,358.9z"/>
		</g>
		<g>
			<path class="st39" d="M216.12,358.9c-5.98,0-10.87,5.62-10.87,12.5s2.53,12.5,5.62,12.5s7.91-5.46,10.72-12.14l0.31-0.73
				C224.69,364.36,222.1,358.9,216.12,358.9z"/>
			<path class="st40" d="M216.12,358.9c-5.98,0-10.87,5.62-10.87,12.5s2.53,12.5,5.62,12.5s7.91-5.46,10.72-12.14l0.31-0.73
				C224.69,364.36,222.1,358.9,216.12,358.9z"/>
		</g>
		<g>
			<path class="st39" d="M289.5,358.9c-4.91,0-11.22,5.46-14.03,12.14l-0.31,0.73c-2.8,6.68-1.08,12.14,3.83,12.14
				s11.22-5.46,14.03-12.14l0.31-0.73C296.14,364.36,294.41,358.9,289.5,358.9z"/>
			<path class="st40" d="M289.5,358.9c-4.91,0-11.22,5.46-14.03,12.14l-0.31,0.73c-2.8,6.68-1.08,12.14,3.83,12.14
				s11.22-5.46,14.03-12.14l0.31-0.73C296.14,364.36,294.41,358.9,289.5,358.9z"/>
		</g>
		<g>
			<path class="st39" d="M378.81,358.9c-4.91,0-11.22,5.46-14.03,12.14l-0.31,0.73c-2.8,6.68-1.08,12.14,3.83,12.14
				s11.22-5.46,14.03-12.14l0.31-0.73C385.44,364.36,383.72,358.9,378.81,358.9z"/>
			<path class="st40" d="M378.81,358.9c-4.91,0-11.22,5.46-14.03,12.14l-0.31,0.73c-2.8,6.68-1.08,12.14,3.83,12.14
				s11.22-5.46,14.03-12.14l0.31-0.73C385.44,364.36,383.72,358.9,378.81,358.9z"/>
		</g>
		<g>
			<path class="st39" d="M398.5,371.4c0-6.88-2.42-12.5-5.38-12.5c-2.96,0-7.67,5.46-10.48,12.14l-0.31,0.73
				c-2.8,6.68-0.31,12.14,5.53,12.14S398.5,378.28,398.5,371.4z"/>
			<path class="st40" d="M398.5,371.4c0-6.88-2.42-12.5-5.38-12.5c-2.96,0-7.67,5.46-10.48,12.14l-0.31,0.73
				c-2.8,6.68-0.31,12.14,5.53,12.14S398.5,378.28,398.5,371.4z"/>
		</g>
		<g>
			<path class="st39" d="M325.22,358.9c-4.91,0-11.22,5.46-14.03,12.14l-0.31,0.73c-2.8,6.68-1.08,12.14,3.83,12.14
				s11.22-5.46,14.03-12.14l0.31-0.73C331.86,364.36,330.13,358.9,325.22,358.9z"/>
			<path class="st40" d="M325.22,358.9c-4.91,0-11.22,5.46-14.03,12.14l-0.31,0.73c-2.8,6.68-1.08,12.14,3.83,12.14
				s11.22-5.46,14.03-12.14l0.31-0.73C331.86,364.36,330.13,358.9,325.22,358.9z"/>
		</g>
		<g>
			<path class="st39" d="M343.08,358.9c-4.91,0-11.22,5.46-14.03,12.14l-0.31,0.73c-2.8,6.68-1.08,12.14,3.83,12.14
				s11.22-5.46,14.03-12.14l0.31-0.73C349.72,364.36,348,358.9,343.08,358.9z"/>
			<path class="st40" d="M343.08,358.9c-4.91,0-11.22,5.46-14.03,12.14l-0.31,0.73c-2.8,6.68-1.08,12.14,3.83,12.14
				s11.22-5.46,14.03-12.14l0.31-0.73C349.72,364.36,348,358.9,343.08,358.9z"/>
		</g>
		<g>
			<path class="st39" d="M360.94,358.9c-4.91,0-11.22,5.46-14.03,12.14l-0.31,0.73c-2.8,6.68-1.08,12.14,3.83,12.14
				s11.22-5.46,14.03-12.14l0.31-0.73C367.58,364.36,365.86,358.9,360.94,358.9z"/>
			<path class="st40" d="M360.94,358.9c-4.91,0-11.22,5.46-14.03,12.14l-0.31,0.73c-2.8,6.68-1.08,12.14,3.83,12.14
				s11.22-5.46,14.03-12.14l0.31-0.73C367.58,364.36,365.86,358.9,360.94,358.9z"/>
		</g>
	</g>
</g>
</svg>
