<svg width="100" height="100" fill="none" xmlns="http://www.w3.org/2000/svg"><path fill-rule="evenodd" clip-rule="evenodd" d="M50 23c-15.6 0-28.2 12.5-28.2 28 0 12.3 8.1 22.8 19.2 26.5 1.5.2 2-.6 2-1.3V71c-7 1.2-9-1.8-9.5-3.3-.3-.8-1.7-3.3-2.9-4-1-.5-2.4-1.8 0-1.9 2.2 0 3.8 2.1 4.4 2.9 2.5 4.3 6.5 3.1 8.1 2.3.3-1.8 1-3 1.9-3.7-6.3-.7-12.9-3.1-12.9-13.8 0-3.1 1.1-5.6 2.9-7.5-.3-.8-1.3-3.6.3-7.5 0 0 2.3-.7 7.7 2.9 2.3-.6 4.7-1 7-1 2.4 0 4.8.4 7 1 5.5-3.7 7.8-2.9 7.8-2.9 1.6 3.9.6 6.7.3 7.5 1.8 1.9 2.9 4.4 2.9 7.5 0 10.7-6.6 13.1-12.9 13.8 1.1.9 1.9 2.5 1.9 5.2v7.7c0 .7.5 1.6 2 1.3C70 73.8 78.1 63.3 78.1 51c0-15.5-12.6-28-28.1-28z" fill="#C5CBDC"/></svg>