<svg width="100" height="100" fill="none" xmlns="http://www.w3.org/2000/svg"><g clip-path="url(#clip0_310_6658)"><path d="M0 50c0 13.3 5.3 26 14.6 35.4C24 94.7 36.7 100 50 100c13.3 0 26-5.3 35.4-14.6C94.7 76 100 63.3 100 50c0-13.3-5.3-26-14.6-35.4C76 5.3 63.3 0 50 0 36.7 0 24 5.3 14.6 14.6 5.3 24 0 36.7 0 50zm36.9 17.5l-1 .7-1.2.3-1.2-.3c-.5-.2-.8-.3-1.1-.6-.3-.3-.4-.6-.6-1.1l-.3-1.2.3-1.2.7-1L58 37.5H40.8c-.8 0-1.6-.3-2.2-.9-.6-.6-.9-1.4-.9-2.2 0-.9.3-1.6.9-2.2.6-.6 1.4-.9 2.2-.9h24.8c.9 0 1.6.3 2.2.9.6.6 1 1.3 1 2.2v24.8c0 .8-.4 1.6-1 2.2-.6.6-1.3.9-2.2.9-.8 0-1.6-.3-2.2-.9-.6-.6-.9-1.4-.9-2.2V42L36.9 67.5z" fill="#5469A1" fill-opacity=".3"/></g><defs><clipPath id="clip0_310_6658"><path fill="#fff" d="M0 0h100v100H0z"/></clipPath></defs></svg>