<svg width="100" height="100" fill="none" xmlns="http://www.w3.org/2000/svg"><g clip-path="url(#clip0_310_6655)"><path d="M0 50c0 13.26 5.27 25.98 14.64 35.36C24.02 94.73 36.74 100 50 100c13.26 0 25.98-5.27 35.36-14.64C94.73 75.98 100 63.26 100 50c0-13.26-5.27-25.98-14.64-35.36C75.98 5.27 63.26 0 50 0 36.74 0 24.02 5.27 14.64 14.64 5.27 24.02 0 36.74 0 50zm36.9 17.52c-.29.3-.63.54-1.01.7-.39.16-.79.25-1.21.25-.42.01-.83-.07-1.21-.23-.39-.16-.73-.39-1.03-.68-.29-.3-.52-.64-.68-1.03-.16-.38-.24-.79-.23-1.21 0-.42.09-.82.25-1.21.16-.38.4-.72.7-1.01l25.6-25.6h-17.3c-.83 0-1.62-.33-2.21-.92-.58-.58-.91-1.38-.91-2.2 0-.83.33-1.63.91-2.21.59-.59 1.38-.92 2.21-.92h24.85c.82 0 1.62.33 2.2.92.59.58.92 1.38.92 2.21v24.84c0 .83-.33 1.62-.92 2.21-.58.58-1.38.91-2.2.91-.83 0-1.63-.33-2.21-.91-.59-.59-.92-1.38-.92-2.21v-17.3l-25.6 25.6z" fill="#434F70"/></g><defs><clipPath id="clip0_310_6655"><path fill="#fff" d="M0 0h100v100H0z"/></clipPath></defs></svg>