<svg width="100" height="100" viewBox="0 0 100 100" fill="none" xmlns="http://www.w3.org/2000/svg">
<path d="M46.416 37.5H32.8125C32.3981 37.5 32.0007 37.6646 31.7076 37.9576C31.4146 38.2506 31.25 38.6481 31.25 39.0625V60.9375C31.25 61.3519 31.4146 61.7493 31.7076 62.0423C32.0007 62.3353 32.3981 62.5 32.8125 62.5H46.416C47.1383 62.5003 47.8381 62.7509 48.3965 63.2089L66.2617 77.8574C66.4947 78.0287 66.7706 78.1321 67.0588 78.1559C67.347 78.1797 67.6362 78.1231 67.8941 77.9923C68.1521 77.8615 68.3686 77.6617 68.5197 77.4151C68.6708 77.1685 68.7506 76.8849 68.75 76.5957V23.4043C68.7498 23.1154 68.6696 22.8322 68.5182 22.5862C68.3668 22.3402 68.1502 22.141 67.8924 22.0107C67.6346 21.8804 67.3457 21.8241 67.0579 21.848C66.77 21.872 66.4944 21.9753 66.2617 22.1464L48.3965 36.7949C47.8376 37.2516 47.1378 37.5007 46.416 37.5V37.5Z" stroke="white" stroke-width="6.25" stroke-linecap="round" stroke-linejoin="round"/>
</svg>
