<svg width="100" height="100" viewBox="0 0 100 100" fill="none" xmlns="http://www.w3.org/2000/svg">
<path d="M68.75 62.5C70.6523 58.7089 71.875 54.5293 71.875 50C71.875 45.4082 70.7031 41.3281 68.75 37.5M78.125 71.875C81.9297 65.2343 84.375 59.375 84.375 50C84.375 40.625 82.0312 34.8242 78.125 28.125M30.791 37.5H17.1875C16.7731 37.5 16.3757 37.6646 16.0826 37.9576C15.7896 38.2506 15.625 38.6481 15.625 39.0625V60.9375C15.625 61.3519 15.7896 61.7493 16.0826 62.0423C16.3757 62.3353 16.7731 62.5 17.1875 62.5H30.791C31.5133 62.5003 32.2131 62.7509 32.7715 63.2089L50.6367 77.8574C50.8697 78.0287 51.1456 78.1321 51.4338 78.1559C51.722 78.1797 52.0112 78.1231 52.2691 77.9923C52.5271 77.8615 52.7436 77.6617 52.8947 77.4151C53.0458 77.1685 53.1256 76.8849 53.125 76.5957V23.4043C53.1248 23.1154 53.0446 22.8322 52.8932 22.5862C52.7418 22.3402 52.5252 22.141 52.2674 22.0107C52.0096 21.8804 51.7207 21.8241 51.4329 21.848C51.145 21.872 50.8694 21.9753 50.6367 22.1464L32.7715 36.7949C32.2126 37.2516 31.5128 37.5007 30.791 37.5V37.5Z" stroke="white" stroke-width="6.25" stroke-linecap="round" stroke-linejoin="round"/>
</svg>
