<svg width="18" height="18" viewBox="0 0 18 18" fill="none" xmlns="http://www.w3.org/2000/svg">
<path fill-rule="evenodd" clip-rule="evenodd" d="M9.001 1.39083e-08C11.3881 0.000132622 13.6773 0.948524 15.3652 2.63654C17.053 4.32455 18.0011 6.61392 18.001 9.001C18.0009 11.3881 17.0525 13.6773 15.3645 15.3652C13.6764 17.053 11.3871 18.0011 9 18.001C7.81804 18.0009 6.64766 17.7681 5.5557 17.3157C4.46373 16.8633 3.47156 16.2003 2.63583 15.3645C0.948004 13.6764 -0.000132594 11.3871 1.39083e-08 9C0.000132622 6.61292 0.948524 4.32366 2.63654 2.63583C4.32455 0.948004 6.61392 -0.000132594 9.001 1.39083e-08V1.39083e-08ZM5.161 12.003L3.388 13.39C3.745 13.846 4.156 14.257 4.612 14.614L5.998 12.841C5.68604 12.597 5.40497 12.316 5.161 12.004V12.003ZM9.001 6C8.20535 6 7.44229 6.31607 6.87968 6.87868C6.31707 7.44129 6.001 8.20435 6.001 9C6.001 9.79565 6.31707 10.5587 6.87968 11.1213C7.44229 11.6839 8.20535 12 9.001 12C9.79665 12 10.5597 11.6839 11.1223 11.1213C11.6849 10.5587 12.001 9.79565 12.001 9C12.001 8.20435 11.6849 7.44129 11.1223 6.87868C10.5597 6.31607 9.79665 6 9.001 6ZM9.001 8.25C9.19991 8.25 9.39068 8.32902 9.53133 8.46967C9.67198 8.61032 9.751 8.80109 9.751 9C9.751 9.19891 9.67198 9.38968 9.53133 9.53033C9.39068 9.67098 9.19991 9.75 9.001 9.75C8.80209 9.75 8.61132 9.67098 8.47067 9.53033C8.33002 9.38968 8.251 9.19891 8.251 9C8.251 8.80109 8.33002 8.61032 8.47067 8.46967C8.61132 8.32902 8.80209 8.25 9.001 8.25ZM13.391 3.387L12.003 5.16C12.315 5.404 12.596 5.685 12.84 5.997L14.613 4.611C14.256 4.155 13.845 3.744 13.389 3.387H13.391Z" fill="#223446"/>
</svg>
