<svg width="328" height="381" fill="none" xmlns="http://www.w3.org/2000/svg"><path fill-rule="evenodd" clip-rule="evenodd" d="M196.4 365.8c4.4-4.2 19-20 23.8-23.7l.5-.2c.3-.1.5 0 .6.1l.4.5v.6c-2.4 4.3-23 23.6-24.2 24.8-.8 1-4.3 5.2-5.3 6.1.1.8-.2 1.6-.6 2.3-.4.7-1 1.2-1.7 1.5-2.6.9-5.1 1.9-7.6 3.1-.3.3-.8 0-.7-.4 1.3-1.5 2.3-3.2 3.1-5 .2-1.2.8-2.3 1.7-3.1.9-.8 2.1-1.2 3.3-1.1.1-.3 5.4-4.7 6.7-5.5zm-6.8 5.8c-1 0-2.1.4-2.8 1.2-.8.8-1.3 1.8-1.4 2.9-.4 1.3-1.1 2.6-2 3.7 5.1-2.1 6.8-1.8 7.9-3.4l.7-2c-1.5-.3-2.5-2.7-2.4-2.4zm6.4-5l-5.6 5c.4.7.9 1.2 1.6 1.7l5.2-5.6c-.5-.3-.9-.7-1.2-1.1zm-9-23.6c2.4-1.5 33.3-21.9 33.6-20.9.3 1-30.4 24.2-30.6 24.4-1.3 1.5-10 10.9-11.2 11.3-1.4-.1-2.8-.7-3.8-1.8-1.4-1.4-2.4-3.1-3-5-.4-1.4 13.8-7.5 15-8zm-14 8.9c.4 1.3 1 2.4 2 3.3 1 .9 2.2 1.6 3.5 1.9l-5.5-5.2zm6-4.6c-2.2 1-4.3 2.3-6.3 3.7.3.8 0 0 2 1.6 1.6 1.3 3 2.8 4.2 4.4 1-.7 5.1-4.7 4.8-4.5l-4.7-5.2zm8.2-4l-8 3.8c1.9 1.3 3.6 3.1 4.6 5.2l5.9-6-2.6-3h.1zm48.4-22.9c1-8.9 2.5-20.1 3.8-20.1 1.2-.1-.1 11.2-1.4 20.2 4 .3 8.8 2.5 8 6.3 0 .7 0 1.4-.3 2 2 13.6.3 16.4.4 16.2-1.1 1.4-2.6 2.5-4.3 3.3-1.6.7-3.4 1.2-5.2 1.2-1.9 0-3.6-.4-5.4-1.1-1.6-.8-3.2-1.9-4.3-3.2-1.7-2.5-.6-13.1-.3-16-.2-.6-.3-1.2-.3-1.9-.3-1.1-.1-2.2.4-3.1.5-1 1.3-1.8 2.3-2.2 2-1 4.3-1.6 6.6-1.6zm9.8 17.6c-1.6 3.2-6 4.2-9.6 4.2 0 1-.2 2-.3 2.9-.2.8-.4 1.4-1.1 1.4-1.2-.2-2.2-.9-2.8-1.8-.6-.8-.4-1.2.3-2.9-.9-.3-1.7-.7-2.4-1.2-.7-.6-1.3-1.3-1.6-2.1 0 1.7.1 3.5.5 5.3.4.8 1 1.5 1.8 2 4.5 3.7 10 2.6 14.5-1.3.3-1.5.5-4.4.7-6.5zm-18.4-8c-.1 2.4-.7 12.6.7 14.6 1 1.2 2.3 2.2 3.8 2.8-1.5-.8-2.8-2-3.5-3.6-.4-2.1-.5-4.3-.4-6.5v-1.8c.2-.5.5-1.1 1-1.5 1.4-1.7 1.7-.8.4-1.7-.8-.6-1.5-1.3-2-2.3zm5.4 11.8c-.3.6-.4 1.3-.6 2 0 .7 1.8 2.2 2.6 2.1.3 0 .4-.4.5-.9l.4-2.8c-1 0-2-.2-2.9-.3v-.1zm13.1-12.3c-.7 1.3-1.7 2.3-3 3 2.3.7 3.8 2.2 3.2 4.5l-.1 3.7c-.2 4.2-.4 4-.2 3.7 1-3.6.5-11.1.1-14.8v-.1zm-3.4 3.1c-1.8.9-3.9 1.4-6 1.4 0 1.2-.1 2.4-.4 3.6v4c2.5 0 5-.6 7.1-1.9 3.2-2 3.7-5.6-.7-7v-.1zm-8.2 5l-1.3 3.6 2.7.3.2-3.8c-.5.1-1.1.1-1.6 0v-.1zm-3.8-4.6c-3.8 2.6-2.1 6.8 2 8.1l1.6-3.5.4-3.6c-1.4-.1-2.7-.4-4-1zm4.2 1l-.2 3.3h1.3c-.1-.2.3-1.9.4-3.3h-1.5zm10.9-5.3c-3.6 4.5-14.4 4.5-18 0 .3 1 1 1.9 1.8 2.6.8.7 1.8 1.1 2.9 1.3 4.6 1.3 11.4.3 13.3-3.9zm-7.5-6.1l-1.3 8.6c3 0 7.1-1.2 8.5-3.6-.5-3.1-4-4.7-7.2-5zm-2.3 0c-1.7 0-3.3.6-4.6 1.4-1.4 1-2.5 2.3-3.3 3.7 1.3 2 4.5 3.1 7 3.3l.9-8.4zm.2-1.8c-2.2.1-4.3.7-6.2 1.8-1.8 1.2-3 2.9-2 4.8.6-1.6 1.8-2.9 3.2-3.9 1.4-1 3.1-1.5 4.8-1.5l.2-1.2zm2.4.2l-.2 1c3.3.3 6.8 2 7.3 5.2.8-1.8-.4-3.4-2.1-4.5-1.5-.9-3.2-1.5-5-1.7zm19.2 8.1c-1-4.6-8.6-39.4-6-41.4.8-.5 1.8-.8 2.8-1 2.9-.6 20.7-3 21.5-.6.9 2.5-4 39.3-4.3 41.3 0 1.3-.5 5.1-.5 5.1-.5 1.1-1.3 2-2.3 2.7-.9.8-2 1.3-3.2 1.5-1.2.2-2.4.1-3.6-.2-1.1-.4-2.2-1-3-1.8-.7-1.8-1.2-3.7-1.4-5.6zm17.3-38.5c-7.6.1-15.3.8-22.8 2 .6 8.4 4.3 28 5.8 36.4 2.1 1 4.5 1.6 6.8 1.4 2.4-.2 4.7-1.2 6.5-2.6.2-1.8 3.6-35 3.7-37.2zm-1.8 11.6s.1-1.4-1.5-1c-1.7.3-4.8 3.2-8.5 2.8-3.8-.3-7.4-2.4-8.5-1-1.2 1.4 3.6 5.9 9.8 4.8 7-1.2 8.9-4.1 8.7-5.6zM253 288c-.4 0-1.2.3-1.3.6-.2 1.2-.2 2.5 0 3.8l2-.4c-.4-1.3-.7-2.6-.7-4zm3.4-.8l-3.2.7c.3 1.3.5 2.7.6 4l3.5-.6c0-.1-.5-1.8-.9-4.1zm3.8-.5l-3.6.5c.5 1.3.8 2.8.9 4.2l3.4-.4c-.1-.7-.6-2.8-.7-4.3zm3.8-.3l-3.5.3c.4 1.3.5 2.8.5 4.3l3.7-.4c-.1-.4-.5-2.2-.7-4.2zm4-.3l-3.8.3c.4 1.3.7 2.7.7 4.2l3.6-.2-.5-4.3zm4.8 0c-.1 1.4-.2 2.9-.5 4.2h2.2c0-.5.4-3.9 0-4l-1.7-.2zm-.3 0h-4.3c.4 1.4.6 2.9.5 4.3h3.4c-.1-1.4.1-2.9.4-4.3zM122 313.7c2.6 0 4.8.9 4.8 2.1 0 1.2-2.2 2.2-4.8 2.2-2.6 0-4.7-1-4.7-2.2 0-1.2 2-2.1 4.7-2.1zm-50.6-11.6c0 .5-.8.9-1.8.9-1.1 0-2-.3-2-.7 0-1.1 3.8-1.3 3.8-.2z" fill="#000"/><path d="M90.4 352.6c1.3 0 2.3-.6 2.3-1.4 0-.7-1-1.3-2.3-1.3-1.3 0-2.4.6-2.4 1.3 0 .8 1.1 1.4 2.4 1.4z" fill="#000"/><path fill-rule="evenodd" clip-rule="evenodd" d="M190.3 285c2 0 3.7.6 3.7 1.3 0 .7-1.7 1.3-3.7 1.3-2.1 0-3.7-.6-3.7-1.3 0-.7 1.6-1.3 3.7-1.3zM63 234c0 .4-.4 4.2-.2 9.7l.2 3.3s.2.1.2 0l.1-3.3c.1-4.6-.1-10-.1-9.7l-.1-.1-.1-.1v.2zm83.2-218.6c2.5.6 6.9 2.1 8.5 4.2l.1.2-.1.2c0 .2-.1.2-.2.2h-.3c-8-3.2-20.7.9-28.8 4.3-3.2 1.3 16-20.3 29.8-16.9l.3.1v.6l-.3.2c-3.2.7-6.2 1.7-9.2 2.8 2.3.1 7.6.5 9.4 2l.1.3c.1 0 .1.1 0 .2l-.1.2-.3.2c-3 .2-5.9.6-8.9 1.2zm6.7-7.3c-3.9 0-7.9 1-11.2 3-6.1 3.2-11.6 7.6-16 12.9 7.6-3.4 18.5-7.1 26.7-5.2-2.6-1.4-5.4-2.3-8.2-2.9l-.2-.2-.1-.3.1-.3.2-.1c3.1-.8 6.2-1.4 9.3-1.7-3-.7-6.2-1.1-9.3-1.1l-.3-.1-.2-.2v-.3l.3-.2c2.8-1.4 5.8-2.5 8.9-3.3zM17.8 175.4c-2 .3-4 .4-6 .4l-.3-.1-.1-.2v-.3c0-.2.1-.2.2-.2 2.4-1.4 8.4-2.7 11.4-4.8l7.3-4.9.1-.1h.1l.1.1c.2.2-.3.2-2.8 3.5-1.6 2.1-3 4.4-4 6.8-1 2.6-2 5.2-2.8 7.8 0 .6-1.4 1-1-2.2.1-1.2.4-2.5.7-3.7-2.1 1.5-4.3 2.9-6.6 4l-.3.1-.2-.1-.2-.3.1-.2c1-2.2 2.5-4 4.3-5.6zm11.3-8.8c-9.8 6.9-5.4 4.4-15.1 8.3 1.8 0 3.7-.3 5.4-.9l.3-.1c.4-.4 1.2.3.3.9-1.9 1.5-3.6 3.2-5 5.2 2.2-1 4.3-2.5 6.2-4.1l.2-.2.3.1.3.2v.4c-.5 1.5-.8 3-1 4.6 1.5-5.4 4.3-10.3 8.1-14.4zm1.4-9.4c3.4-5.5 8.2-9.9 14-12.8 7.7-3.7 10.5.2 7.1 7.2-3 5.6-7.3 10.4-12.6 14 .6 2.1.9 4.2.8 6.4-.6 2-10.3 5.3-11.7 5.1l-.3-.1-.2-.2c-.2-.4.3-.8.7-1.2 2.5-1.8 5-3.4 7.7-4.8l-.1-3.4-1.2.6h-.2l-.2-.1-6.3-6.2v-.1-.1l.6-1.2h-3.5c-.5 1.1-4 8.2-5.1 8.7h-.3-.2l-.2-.3-.1-.2c-.2-1.5 2.8-11.3 4.7-11.9 2.1-.2 4.4 0 6.5.4l.1.1v.1zm8.1 8.6l-2.4 1.4.4 3.8c0 .3 0 .1-4 2.8l-3.3 2.2c3-.9 5.9-2 8.7-3.6.2-.1.8-.5.9-.8.1-1.9.1-3.9-.3-5.8zm-8.8-6.6c-.8 1.2-1.3 2-1.4 2.4l6.2 5.7 2.3-1.3c-2.6-2-4.9-4.3-7.1-6.8zm.5-1.7c-2.1-.3-4.2-.3-6.3 0-.6.3-1.8 3.5-2 4-.7 1.9-1.3 3.8-1.7 5.8 1.2-1.8 4.4-7.6 4.3-7.3l.1-.2h.2l3.9.2 1.5-2.5zm11-10.4c-4.5 3.1-8.3 7.1-11.3 11.7 2.7 2.1 5 4.4 7.2 6.9 4.6-3 8.5-6.9 11.6-11.4l-7.5-7.2zm-3.6 5.1c-.3.4-.7.8-.8 1.4-.2.4-.3 1-.3 1.6 0 .5.1 1.1.4 1.6.2.5.5 1 .9 1.4l1.4.8c.5.2 1.1.3 1.7.3l1.5-.3 1.4-1c.8-.8 1.1-1.9 1.1-3s-.4-2.2-1.3-3c-.7-.8-1.9-1.2-3-1.2-1.1.1-2.2.5-3 1.4zm5.6.3c.7.6 1 1.5 1 2.5 0 .9-.3 1.8-1 2.4-.6.6-1.4.9-2.3.9-.9 0-1.7-.3-2.3-.9-.7-.6-1-1.4-1.1-2.3 0-.8.3-1.7.8-2.3.6-.8 1.6-1.1 2.4-1.2.9 0 1.8.3 2.5.9zm-1.1 1.1c.3.3.5.7.5 1 .1.4.1.8-.1 1.2-.1.4-.4.7-.7.9-.3.2-.7.3-1.1.3-.4 0-.8-.1-1.1-.3-.4-.2-.7-.5-.7-.9-.2-.4-.3-.8-.2-1.2.1-.3.2-.7.5-1l.7-.4c.2-.2.5-.2.8-.2.2 0 .5 0 .8.2l.6.4z" fill="#000"/><path fill-rule="evenodd" clip-rule="evenodd" d="M105.5 17.8l-.4-.6-.1-.7.2-.7.5-.5.7-.2c.2-.1.5 0 .7.1l.6.4c.1.2.3.4.3.7l-.1.7-.5.6-.7.4-.7-.1c0 .2-.3 2.4-.9 5.1 2.8 0 5.5 1 7.6 2.8l.1-.2c15.6-2.2 17.2 3 12.2 7.1-5.6 4.7-23 10-32.5 8.8-2.5-.3-6.4-1.5-6.5-3.8 0-3.1 8.2-6.5 8.5-6.7 1.3-3.2 3.8-5.9 7.1-7.4-1.5-1.6-2.9-3.8-3.3-4.2-1.7 1-3.3-1.2-2-2.4.3-.2.7-.3 1.1-.3.3-.1.6 0 .9.1l.7.7v.9c0 .4-.2.6-.5.8.7.5 1.3 1.1 1.8 1.8 2.9 3.4.5 2.2 4 2 .1-1.8.5-3.6 1.2-5.2zM94.2 31.6c-1.8.9-7.6 4-7.5 6 0 .7.5 1.4 1.6 1.9 7.4 4 29.6-2.2 36-7.5 3.7-2.9 3.3-5.7-3.7-6.2-2.6-.1-5.3-.1-8 .2-.5 1.2-5.3 10.3-18.4 5.6zm-2 4.8c-.2.2-.2.4-.2.6 0 .2 0 .4.2.6 0 .2.2.4.3.4l.5.4h.6l.6-.2.4-.4.2-.5c.2-.3.2-.7 0-1.1-.2-.3-.5-.6-.8-.7-.4-.1-.8-.1-1.1.1-.3.2-.6.4-.7.8zm1.6-.6c.9.4.3 2-.5 1.8-.9-.2-.4-1.9.5-1.8zm13.8-1.1l-.5-.2h-.5l-.4.2-.4.5v1.1c.2.4.4.7.7.9l.5.1h.6l.5-.3.3-.5v-1c-.2-.4-.4-.6-.8-.8zm-.1.3c.8.6.2 2-.6 1.5-.9-.5-.4-1.9.6-1.5zm10.7-5.7l-.4-.3h-.5c-.2 0-.3 0-.5.2l-.3.3c-.1.3-.2.7-.1 1 .1.4.3.7.6.9l.5.2h.5l.5-.2.3-.4.2-.5-.2-.5-.2-.4c-.1-.2-.3-.3-.4-.3zm-.2.2c.6.5.2 1.7-.5 1.2s-.3-1.6.5-1.2zM97.4 17c.2 0 .5.1.6.3l.4.7c-.1.2-.1.4-.4.6 0 .2-.3.2-.5.2h-.4l-.3-.2-.3-.6.2-.7c.2-.2.4-.3.7-.3zm8.8-1.7c.3 0 .5.1.8.3l.2.7-.2.6-.7.2h-.3l-.4-.1-.3-.3-.1-.4.1-.4.2-.3.3-.2.4-.1zm98.8 99.3c.9-1.7 2.4-3.1 4.3-3.8 1.8-.7 3.8-.6 5.7.1 1.8.7 3.4 2.1 4.3 3.8.9 1.7 1.2 3.7.7 5.7 3 1.4 5.8 3.1 8.4 5 1.2 1 1 2-1.1 1.9-3.5-.3-7.1-1-10.5-2-1.1.7-2.4 1.3-3.8 1.5-1.3.2-2.7 0-4-.5-1.2-.5-2.4-1.3-3.2-2.3-.9-1.1-1.5-2.4-1.8-3.7-2-1-9-4.5-9.4-6.6-.1-.7.6-1 1.4-1.1 3 .1 6 .8 9 2zm14.8 6.2c-.4 1.3-1.1 2.6-2.1 3.6 3.4.9 6.9 1.6 10.4 2-1.1-1.5-6.6-4.7-8.3-5.6zm-15.1-.2c.3 1.1.9 2.2 1.7 3 .8.9 1.8 1.6 2.9 2 1.1.4 2.2.6 3.4.4 1.2 0 2.3-.4 3.3-1-3.9-1.2-7.6-2.7-11.3-4.4zm12.3 3.6c1.5-1.2 2.4-3 2.6-4.9.2-1.8-.3-3.7-1.4-5.3-.5-.8-1.2-1.5-2.2-2-.8-.6-1.7-1-2.7-1.1-1-.2-2.1-.2-3 .1-1 .2-2 .7-2.8 1.3-1 .8-1.9 1.9-2.5 3.1-.5 1.2-.7 2.6-.5 3.9 4 2 8.3 3.7 12.5 4.9zm-12.3-9.2c-1.5-.5-8-2.4-9.2-1.4.5 1.4 7 4.8 8.5 5.4-.1-1.4.1-2.8.7-4zm-145 123.3c2.4 1.5 5 2.9 7.6 4.1h.1l.1-.1-.1-.1c-2.4-1.6-4.9-3-7.6-4.2l-.1.1v.2zM16.4 62.7c0-4.9.2-9.4.2-9.2l.1-.1.1-.1.2.1v.1c0 1.5.3 2.7.3 9.5 1.5-1 3-1.9 4.6-2.7h.1l.1.1.1.1-.1.1-.1.1c-1.2 1-2.5 2-4 2.9l5 2.8c1.3.9 1.3.9 1.2 1.1-.1.2-.2.1-1.6-.5-1.3-.7-2.3-1-5.3-2.7 0 7.7-.3 11.1-.3 10.9v.1l-.2.1-.1-.1-.1-.1c0-1.4-.3-2.7-.3-10.5-1.5 1.1-3.1 2-4.8 2.9h-.2l-.1-.1v-.1-.1l.1-.1 4.9-3.5-3.4-2c-1.3-.8-1.7-1.1-1.6-1.3H11.5c2.5 1 4 1.8 4.9 2.3z" fill="#000"/><path fill-rule="evenodd" clip-rule="evenodd" d="M59.8 242.4c2.2-1.2 4.4-2.6 6.4-4.1.1 0 0-.3-.2-.3-2.2 1.2-4.3 2.6-6.3 4.2-.1.1 0 .3.1.2zm62-120.6c0 5.6.2 6.5.2 7.5v.2H122.3v-.1-.1c0 .2.2-3 .2-7.8l4.8 2.3c.2 0 .3-.1.1-.2-1.4-.9-2.8-1.8-4.4-2.6l3-2v-.2h-.1c0-.1-.1-.1-.1 0 0 0-1.6.8-3.3 1.9 0-5-.2-6-.2-6.9v-.1H122v.1l-.2 6.6c-.5-.3-1.7-.9-3.5-1.6-.1 0-.3.2-.1.2.2 0 1.5 1 3.6 2.2-1.3.8-2.5 1.5-3.6 2.4-.2 0 0 .4.1.2-.2.2 1.3-.6 3.5-2zm50.3 141.3c-2.1-.9-25.1-2.3-25.4-2.3-.6 0-5.1.9-5.4 1-.3 0 0 0 0 .1 1.7.8 3.6 1.4 5.4 2 2 .4 6 .4 25 2.5.3 0 1.1-1.3.7-3.1l-.3-.2zm-25.5.6l-3-1.1.2-.6v-.5l2.9-.5c.5.5-.7.7.2 1.3.1 0 .1 0 0 .2l-.1.1-.1.1V263c.2.3.3.5-.1.7zm.3 0c.5-.3-.2-.8.1-1 .9-.7-3.1-.5 23.3 2 0 .3.1.8.3 1.1l-23.7-2.1zm23.4.8l-23.1-2.3c-.2-.2-.5-.2-.4-.5.2-.2.3-.4 0-.7.2 0 19.9 1.6 24 2.3-.3.3-.4.7-.5 1.2zm1.3 1.4l-.3-.5c-.1-.4 0-1.8.7-1.8v1.2c0 .4-.2.8-.4 1.2v-.1zm13.9-59l-.1-.2-.2-.2h-.2l-.2.1-.2.1-.1.3v.1l.1.2.6 1 .2.2.2.1h.2l.2-.1.2-.1v-.2-.2l-.1-.3-.6-.8zm-24.9-42.5c.1-1 1.2-5.7.8-5.8l-.1-.1v.1h-.1v.1c-.6 1.3-1 2.8-1.3 4.3-.2.5-.2 1-.3 1.6l.1.2.2.2 1.6.5c.5 0 2 .1 1.8-.3-.2-.4-.4.3-2.7-.8zm9-2.9v-1.1c0-.7-1-.8-1 0v1.4l.1.2.3.1h.1l.2-.1h.2l.1-.3v-.2zm1.3 5.5c-.6 2.4-1.5 2.8-2.5 2.9h-.7-.1l-.1.1v.1l.1.1c1.7 1 4.1-.2 3.7-3.2l-.1-.1h-.2l-.1.1zm7.5 25l-.1-.2-.1-.1-.2-.1h-.2l-.2.1-.1.1-.1.2v.2l.3 1.1.1.2.2.2.2.1.2-.1.2-.1.1-.2.1-.2-.1-.2-.3-1zm-19.7-33.5c.1-.1.1-.2 0-.2l-.1-.3h-.1l-.3-.1-.2.1h-.2l-.1.3v1.6l.1.1.2.2.2.1.3-.1.1-.2.1-.1v-.3-1.1zm158.1 83.8s-.1 0 0 0z" fill="#000"/><path fill-rule="evenodd" clip-rule="evenodd" d="M326.8 241c-2.2-1-7.5-.2-10 .3-.9-1-2.1-1.8-3.4-2.3-1.2-.4-2.6-.5-4-.3-2.2.5-2.8 3.3-2.7 5.6-1.4-.3-3-.4-4.4-.6.1-.4.5-1 .4-1.5l-.3-.4-.4-.2-.6-.1-.4.2-1.1 1c0-.7.5-1.8-.2-2-.7-.2-2.8 1.8-3.5 2.5-4.6-.5-9.2-.5-13.8 0-6 .4-11.7 3-16 7.2 24.3-28 35-47.3 34.7-71.2-.2-24-28.7-35.5-40.5-35.8-11.3-.2-23.1 6-23.6 6-10.4 2-37.3-.9-43 1.4 0-2.5-.4-5-1.3-7.4-1-2.4-2.4-4.4-4.2-6.2-3.2-3.6-8.5-4.9-13.7-4.7-7.5.4-14.9 3.5-18.6 10-1.2 2.1-2 4.5-2.2 6.9 0 .6-1.2 10.9 2 18.6.8 2 2 3.7 3.5 5.1 1.5 1.4 3.4 2.5 5.4 3.1-3.3 4.2-6.2 8.8-8.9 13.4-.6 1.3-.2 2 .7 2 .9 0 2.1-.3 3-.2-1.3 3.6-4.7 13-5.5 16.8-4.2 2.8-7.8 6.1-11 9.8-6 7-8.8 14.4-15.6 18.4l-2 1.1c2.7-8.2 7.8-24.6 6-24.7-1.9 0-6.4 15.8-9.3 26.5-3.1 1.7-4.6 2.7-5.7 6.1-.4.9-.6 1.8-.6 2.7 0 .9.2 1.9.6 2.7l.6.7c.2.2.5.3.8.3.2 0 .2-.2-.4 1.2l-.9.5-9.7-5.9-56 7.2-3.4-2.6c-28.7-22.4 65.2-46.4 72.7-77 6.7-27.3-32-32.9-23.4-58.6 8.6-25.7 64.8-18.5 117.8-21.6 52.9-3 74-56.5 35.4-84.3-38.5-27.9-78.1 11.7-87.5 21.8-9.3 10.1-20.1 23.3-50.4 22-30.4-1.4-70 3.8-84.6 47.7-7 21.1-.7 35.8 8.6 47.5 3.2-3.1 7-5.5 11.3-6.8 2.5-.6 4.9-.3 5.6 2.1 1.4 4.6-4.1 11.6-7.3 15.1 8 7.7 15.7 14.2 18.7 20.9 5 11.4-19.1 19.8-29.3 26.4C25 214 9.4 234.5 19 254.4c.7 1.5 1.5 3 2.4 4.4C1 261.4.4 261.4.2 261.6c-.2.1-.2.4 0 .6H0c1.8 2 54.8 77.8 87.3 116.2l.7.2c7-3.4 134.7-65.4 128-69.3l-95.7-53.4c.3-.6.7-1.2.9-1.9l.3-.1.1-.3v-1.1c1.3.5 3.2-.8 4.2-1.7 2-1.8 5-6.9 7.2-7.6 4.5-1.1 8.8-2.4 13.1-4 17.9-6.7 25.2-14.2 33-26.2 1.3-2 2.4-4 3.3-6 4.5 4.9 10 8.7 16.1 11.4-16.1 18.6-13.6 30.5-7.8 36.9 5.3 5.9 14 3.8 15.5 3.4 0 8.9 3 28.6 4 30.6.5 1.1-1.2 2-1.6 4.2-.2 1.2-.1 2.4.4 3.5.5 1 1.2 1.9 2.2 2.5 2.2 1.5 6 1.5 4.5-.7L214 297l2 .8c7.4 2.8 8.3 4.2 9.7 3.7l.5-.2.3-.4.5.2.6-.1c.2 0 .4 0 .5-.2l.4-.4.1-.4-.1-.4c.3-.5.4-1 .3-1.5 0-1.8-6.9-7.6-8.3-8.8.2-2 1.2-6.4 3.9-18.3 13.6 15.4 59.5-6 62-7 .4.4 17.3-6.8 19.3-7.8-.2 0 21.5-9.8 22.3-13.4 0-.8-.5-1.4-1.2-1.8zM249.5 60c.3 0 .6 0 .8.3.3.2.4.6.4.9l-.1.5-.3.4-.3.3-.5.1-.5-.1-.4-.3-.3-.4-.1-.5.1-.5.3-.4c.1-.1.2-.3.4-.3h.5zm-11.3-35h.4c.2.2.4.2.4.4l.3.4.1.4-.1.6c0 .2-.1.2-.3.4l-.3.3-.5.1-.5-.1-.4-.3c-.2-.2-.3-.2-.3-.4v-.6-.4l.3-.4.4-.3.5-.1zm-37.6 55.2l-.4-.2-.2-.4.2-.4c.1-.2.2-.2.4-.2l.4.1.2.5-.2.4c-.1.2-.3.2-.4.2zm-5.5-55c0-.8 2-1.2 2.9-1.2 1.5-.3 3-.3 4.4 0 .9-1.7 2-3.3 3.3-4.6.4-.4.8-.5 1.2 0 .9 1.8 1.4 3.8 1.7 5.8 3.1.8 7.4 2.3 4.8 4.1-.8.6-2.2 1.2-3.8 2 .2 1.7.3 3.3.2 4.9 0 .8-.2 1.8-.9 2-1.5.2-2.7-1.8-5.1-3.9-2.2 1.1-6.8 3.7-6.8 1.2.2-2 .8-4 1.7-5.8-2.3-2.2-3.7-3.2-3.6-4.4v-.1zm-2 36.8c0 1.4-.3 2.8-1.1 4-.6 1.2-1.6 2.2-2.8 3-1.2.7-2.6 1-4 1.1-1.4.1-2.7-.3-4-.9l11.7-9.2.2 2zm-.5-2.8c-3.2 2.5-7.5 6-11.8 9.8l-.9-.7c4.1-4.3 8.3-9 10.8-12 .9.8 1.5 1.8 1.9 2.9zm-2.3-3.3l-10.8 12c-.8-.9-1.5-1.8-2-2.9 3.1-2.1 7.2-5.2 11.8-8.8l.7-.6.3.3zm-5.3-2c1.6 0 3.2.4 4.5 1.3l-2.8 2-9.3 7.3c-.4-1.2-.6-2.5-.4-3.7.2-1.3.7-2.5 1.5-3.6.7-1 1.7-1.9 2.8-2.5 1.2-.6 2.4-.9 3.7-.9v.1zm-19.3-3.3c.3 0 .5 0 .7.2.2.1.4.2.5.5l.1.7c0 .3-.2.5-.3.6-.2.2-.4.4-.7.4h-.7l-.5-.5c-.2-.2-.2-.5-.2-.7 0-.3.1-.6.4-.8.2-.2.5-.3.8-.3l-.1-.1zm-11 30.3c.5 0 .9.1 1.3.4.4.3.7.7.9 1.1l.1 1.4c-.1.4-.4.8-.7 1.2-.3.3-.8.5-1.3.6-.4.1-.9 0-1.3-.2s-.7-.4-1-.8c-.3-.4-.4-.9-.4-1.4 0-.6.2-1.2.7-1.7.5-.4 1-.6 1.7-.6zm-31.1-5.7c.9 0 .9 1.6 0 1.6s-.9-1.6 0-1.6zm-81.3 44.2H42l-.3-.1-.2-.3v-.2-.3l.2-.2.3-.1.3-.1.2.1.3.1.2.2v.5c0 .2-.1.2-.2.3l-.3.1c0 .1-.1.1-.2 0zm43 78.6c-.3 0-.6-.2-.8-.4l-.5-.6v-.8l.5-.7c.2-.2.5-.3.7-.3.3-.1.6 0 .8.1l.6.5.2.8c0 .4-.2.7-.5 1-.3.2-.7.4-1 .4zM90 64.2l.8.2.5.6.1.8c-.1.3-.2.6-.4.7l-.7.5-.8-.1c-.3-.1-.5-.3-.6-.6-.2-.2-.3-.4-.3-.7 0-.4.2-.7.4-1 .3-.2.6-.4 1-.4zm1.2 71.8l-.2.6-.4.4H90c-.2 0-.4 0-.5-.2-.2-.2-.3-.3-.3-.5v-.6c0-.2.1-.3.3-.5l.5-.2h.4l.4.3.2.3.1.4h.1zm.4 29.6c1.2-1 4.8-3.9 5.8-3 1.1.9.2 2.9 0 5.6 2.2 1.1 6.8 3.1 5 4.4-1.7.9-3.6 1.4-5.6 1.7-.3 2.9-.3 4.4-1.3 4.9-.6.3-2.1-.9-2.7-1.5-1.1-.9-2-1.9-2.8-3.1-1.8.2-3.7.2-5.5 0-.5-.1-.8-.4-.7-.8.2-1.1 2.7-3.5 3.5-4.3-.5-1.1-1.8-4-1.3-5.1.6-1.6 3.1.2 5.6 1.2zm-6.5-64.5c.4 0 .7.3.6.9-.4 1.4-1.1 2.8-1.9 4.1.9.9 1.6 1.9 2.2 3 2 3.9-.8 2.9-4.9 2-1 1.5-2.2 2.7-3.6 3.7-1.9.9-2.3-3-2.6-5.2-2.9-.7-5.1-.6-5.7-1.8-.6-1.1 3.8-2.8 5-3.4-.2-2-1-4.7.8-4.6 1.7.5 3.3 1.4 4.6 2.7 1.8-.8 3.6-1.2 5.5-1.4zM59.6 157H59l-.6-.4c-.2-.1-.4-.3-.4-.5l-.2-.6.2-.7c0-.2.2-.4.4-.5l.6-.3H60.3l.6.3.4.5.1.7-.1.6-.4.5-.6.4h-.7zM48.4 96.6l-.2-.1-.1-.2.1-.3h.2c4.3-.4 9.3-.5 13.7-.5-3.7-2.5-7.6-4.8-11.7-6.5l-.2-.2v-.2l.1-.2.3-.1c4.5 0 9 1.2 13.1 3.2-2.7-2.6-5.5-5.1-8.5-7.5l-.1-.1.1-.3.1-.1h.3c5 1.6 9.8 4.1 14 7.3 4.2 3 7.8 6.8 10.7 11.1 0 .1-.2.3-.3.1-3-4.2-6.5-8-10.7-11-3.7-2.7-7.8-4.9-12.1-6.4 1.4 1.2 7.4 6 8.1 7.8.2.3-.2.6-.5.4-2.2-1.2-4.4-2.1-6.8-2.8-1.8-.5-3.7-.9-5.6-1 2.3 1.1 9.4 4.6 10.9 6.7V96l-.2.2H63l-11.7.2c7 1.4 16 3.9 21.8 8 .2.2 0 .4-.1.3-6.4-4.4-17.2-7.1-24.6-8.1zm113.2 41.3c6.8-5.2 20.4-6.5 26.3 0 1.7 1.7 3.1 3.7 4 6 .9 2.2 1.3 4.7 1.2 7.1-.4 4.4-2.3 8.5-5.4 11.8-.3.3-.3 0-.2-.2l.7-1.6c.1-.6 0-1.3-.2-1.8-.1-.6-.4-1.2-.8-1.6-.4-.4-.9-.8-1.5-1-3.7-1.7-4.9 4.6-7.7 5.4-2.4.7-1.5-4.9-1.3-8.6.3-1.7-.1-3.4-1.1-4.7-1.6-1.8-3.6-3.2-6-4-4-1.7-8.3-2.2-12.6-1.7 1.2-2 2.7-3.7 4.6-5.1zm-4.7 29.8c-3.3-7.8-1.9-18.2-1.9-18.2.2-2.1.8-4.1 1.8-6 4.3-.4 8.7.3 12.6 2 2.2.8 4.2 2.1 5.7 3.8 2 2.7 0 7.7.7 11.7.2 1.5.9 2.5 2.4 2 3.1-1 4.2-6.8 7.2-5.5 2.9 1.4 2.4 5.3-1.1 6.8-1.3.6-1.3 1.9-.3 2 .6 0 1.7-.3 3.3-1.6 2.4-2.3 4.2-5.1 5.5-8.2 2.8.5 5.5 1.5 8 2.8 3.5 1.7 7.7 3.9 11.1 5.9-5.1 1.2-9.7 3.8-13.3 7.5-3.6 3.7-6.2 8.4-7.2 13.5-.8 0-.7-1.1-1.2-1.5-.6-.4-.9 0-1.5.3 0-.6-.1-1-.3-1.5 0-1.1-1.9-.5-3-.1l-.2-1.4c.4-1.5-2.2-.8-3.8-.4.2-.6.2-1.1 0-1.7.2-1.2-2.4-.4-3.4 0l-.1-2c-.6-.8-3.6.9-3.7.1l.3-1.6c.4-1.2-1.3-.4-1.8-.5h-.1v-.3c1.7-.4 3.3-1.1 4.8-2 .8 1.2 1.9 2 3.2 2.4 1.2.3 2.4.3 3.7 0 1.2-.4 2.2-1.1 3.1-2 .8-1 1.3-2.1 1.5-3.4.1-1.2-.1-2.5-.6-3.6 0-.2-.4 0-.3.1l.3 2.4c-.1.8-.3 1.6-.7 2.3-.4.8-.9 1.4-1.5 1.9s-1.3.9-2.1 1.1l-4.9-3c-.1-.1-.1 0-1.1.7-.7-1.3-1-2.8-.6-4.2.4-1.5 1.2-2.7 2.4-3.6 1.4-.9 3-1.4 4.7-1.3l.1-.1.1-.1-.1-.2h-.1c-1.8-.2-3.6.2-5.2 1.1-1.3.9-2.3 2.4-2.8 4-.5 1.7-.2 3.4.5 4.9-3.5 2-7.5 3-11.6 2.6-2-.6-3.7-1.6-5.2-2.9-1.5-1.4-2.6-3.1-3.3-5zm31.1 17.8l1.5-.5c.9-.4.7 1.4 1.8 1.4-.3.9-.3 1.6-.4 2.1l-2.7-1c0-.7 0-1.4-.2-2zm0-.5l.2-.8.3.8h-.5zm-.2.4v2l-4-1.8-.2-1.1c.9 0 4-1.5 4.1-1 .2.5-.6 1.5.1 1.9zm-4.4-1l.1.9-3.2-1.6-.2-1.3c1.2-.1 2.4-.4 3.6-.7.1 0 1-.2.9 0-.1.5-2.1 2.3-1.2 2.7zm-3.5-.9l-2.8-1.5-.2-1.3c.3 0 .7 0 .9-.2 1-.4 2-.6 3-.7-.5.5-.8 1-1.1 1.6-.1.7 0 1.4.2 2.1zm-3.2-1.8l-2.3-1.4c.1-.6 0-1.2-.1-1.7.6.1 2.3-.6 3-.5l-1 1.5c0 .7.1 1.4.4 2.1zm.8-2.9v1.2c-.1 0-.5.2-.6 0-.1-.3.4-1 .6-1.2zm3.5 1.7c0 .4 0 .8.2 1.1-.3.2-.7.2-1 .2 0 0-.1-.3.8-1.3zm3.9 2l.2.9-1.2.4 1-1.3zm-11-4.2c-.1.7.1 1.2.1 1.8l-1-.7-.4-3.4c.5 0 1.6-.2 1.6 0 0 .4-.9 1.7-.3 2.3zm4.2-5.3l.9-.7 4.4 2.7c-1 .2-2 .1-2.9-.2-.9-.4-1.8-1-2.4-1.8zm-21.4 17.7c-.5-.2 2.3-4.4 2.6-4.9l6.1-9.5c1.6.1 3.4 0 5-.3.3 11.8 2.4 16.7 5 21.3-1.3-.3-2.7.2-3.8-.2-1.7-.5-1.6-2.9-4-3.1-1.6.2-3.1.7-4.5 1.6-.5.2-.6 0-.8-.3l-.8-4c-1-1.6-3.8-.3-4.8-.6zm-49.8 57.4l9.4 5.7c-.5.5-1.1 1-1.8 1.4-1.5.8-3.1.2-3.1 1.4-8.7 3.4-21.6 18.6-5.4 32.4 20.6 17.8 44.2 24.9 22.3 41.8-6 4.7-12.3 4-19.3-.6-7.9-5.2-7.8-27.8-15.3-41.8C81.2 265.2 76 273 51.8 255.5l55.1-7.4zm27.7 84l-.1-.1h-.1l.1-.2.1-.1.1.1.1.2h-.1l-.1.1zm-10.2 6h-.3l-.1-.1-.2-.2-.1-.2.1-.3.2-.2.1-.1h.3c.2 0 .3 0 .4.2.2.1.2.2.2.4s0 .4-.2.4l-.4.2v-.1zm-25.8-1.4c.2-.6.5-1.1.9-1.7-.9-1.2-1.4-1.8.2-1.7.4 0 .9.1 1.3.3 1.6-1.8 1.9-1.6 1.8.7.4.2 1.4.7 1.5 1.1.2.4-.8.6-1.5.9 0 .5-.2 2-.7 2-.4 0-.7-.8-1.3-1.5-.8.2-2.3.7-2.2 0v-.1zm-.2-25.5h-.3l-.2-.1-.2-.1v-.3-.3l.2-.2.2-.1h.3l.4.2c.2.1.2.2.2.4s0 .3-.2.4c-.1.2-.3.2-.4.2v-.1zm-24.2-29c-.1.1-.2.1-.2 0l-.3-.1-.1-.1-.1-.3.1-.3.1-.2.3-.1c0-.1.1-.1.2 0h.3l.2.1.2.2.1.3-.1.3-.2.1-.2.1h-.3zm-8-12.4H66l-.3-.2-.1-.2-.1-.2.1-.2.1-.3.3-.1h.5l.2.1.2.3.1.2-.1.2-.2.2-.2.1-.2.1h-.1zm-23.4-4c0-.1.2-.1.2 0l.2.1.2.1v.6l-.2.2-.2.1c0 .1-.2.1-.2 0h-.3l-.2-.2-.2-.2v-.2l.1-.3.1-.1.3-.1c.1-.1.1-.1.2 0zm-13.2-40c.8-.8 1.7-1.2 2.8-1.5 0-2.6-.2-4 1.8-2.5.6.5 1.2 1.1 1.6 1.7.9-.3 1.9-.5 2.9-.5.3 0 .4.2.4.5-.3 1-.8 2-1.5 2.8.6.9.9 1.9 1 3-.1 1-1.6.1-2.9-.3-.6.7-2.2 2.8-2.8 2.3-.7-.4-.3-1.7-.4-3.3-1.2-.5-3.7-1.3-2.9-2.2zm-7.4 17.6h.3l.2.1.2.2.1.3-.1.2-.2.2-.2.1h-.3c-.1.1-.2 0-.2 0l-.2-.1-.2-.2v-.2-.3l.2-.2.2-.1h.3-.1zm192.9 66.4c-7.3 9.6-116.6 62.6-127.2 67.7-25-29.6-63.9-83.7-86.7-115.3l20.6-2.7c12.8 20.3 32.5 15.6 43.1 22 11.9 7.3 18 12.8 21.6 26.9 4.9 19.1-1.3 27.4 13 33.5 13.7 5.8 41 3.4 52-15.5 11.1-18.9-10.5-27.2-30-36-19.4-8.8-16-20.9-13.3-24.4 2-2.6 4.3-5 6.9-7 1 0 1.9-.2 2.9-.7.8-.5 1.5-1.3 2-2.1l95.2 53.6h-.1zm-74 23.6h.1l.1.1v.2l-.1.1h-.2v-.1-.1-.1-.1h.1zm5.1-20.3c-.2.2-.6 0-1.2-.2-.8.9-1.2 1.2-1.1-.4-.9-.3-1.4-.5-.6-.9.3-.2.5-.3.8-.3.2-1.4.4-1.4 1.2-.3h1.1c.3.2-.2.6-.5 1 .1.2.6 1 .4 1.1h-.1zm-29.5-55.3c-.7.2-1.6.3-2.4.2-.8-.3-1.5-.7-2-1.3h.1c3.8-.6 3.3-2.1 5.2-3.1.2.2 0 .2 3.2.4-.8 1.8-2.3 3.1-4.1 3.8zm4.6-8c-.3.6-.3 1.2-.3 1.8l-.2 1.4-2.2-.2 1.6-3.8h1.3l-.2.8zm-.3-5.6c-1.4 2.6-2 7.4-3.3 6.5-.4-.4-.7-1-.7-1.6 0-1.1.1-2.3.5-3.4.3-1.1.9-2.2 1.7-3.1.8-.9 1.8-1.6 2.8-2.1-1 4.1-.7 3.2-1 3.8v-.1zm1.4 3l1.4-4.1c.2-.1.2 0 .6.9.6 1.3-2.6 4.9-2.6 4.9l.6-1.6v-.1zm56.5-34.6c-7.1 10.6-12.3 15.4-20.6 20-8 4.2-16.6 7.4-25.4 9.6-3.6 1.1-6.5 9-10.4 9.4-.5 0-.8 0-.5-1 1-2.6 4.2-4.6 3.3-7l-.5-1c-.1-.3-.4-.5-.7-.6l1.1-3.2 2.8-1.6c7.1-4.2 9.9-11.7 15.8-18.6 3.2-3.9 6.8-7.2 10.8-10 .4-.2-.2.1 2.1-7.2 1.3-4.3 2.9-8.7 3.4-10l.2.1.2.1c.5 1 .5 2.9.9 4 1 2.6 3.6-.8 6-.8 2 0 2 2.3 4 2.9 1.5.5 3-.5 4.4.2 1.8 3.1 4 6.1 6.4 8.7-.9 2.1-2 4.1-3.3 6zm12.2.6c-6.1-4.3-11.1-9.9-14.8-16.3-2.5-4.3-4.7-9.1-5.5-21.1l1.4-.3.4 4c2.2 1.6 4.5 3.1 7 4.5 0 0-1.7 9.6 6 22 3.7 6 5.5 7.3 5.5 7.3v-.1zm37.2 25.8c.4 4.4-3.6 28.2-4.1 31.4l-.2.1c.3-.9-4.2 14.2-4.5 18.9 0 .4 0 .2 3.4 3.2 1.1 1 5.1 4.4 5.3 5.6v.9c-1.8-1.9-3.9-3.4-6.2-4.5h-.2l-.1.1s-.1.1 0 .1v.2l1.7 1.2c1.6 1.1 3.1 2.4 4.4 3.8-.2.6-.6.6-1.2.5 0-1.1-4.6-3.6-6-4.5-.2 0-.4.2-.2.4 2 1.1 3.9 2.5 5.6 4.1-.6 1.5-2.6-.6-9.6-3.5-1.3-.6-2.6-1-4-1.2l-.3.1-.1.1c-.2.6.3.6 2.1 2.4.4.3.7.7 1 1.2-1.2.1-2.4-.2-3.4-.8-.8-.6-1.5-1.3-1.8-2.2-.4-.9-.6-1.9-.4-2.8.3-2 2.3-3 1.5-4.8-.8-1.8-2.5-13.4-2.8-15-2.2-15-1.3-15.4-1.8-15.5 0-20.8.7-20.9.6-22l-4.6-31.2c1.3 0 2.3 1.5 3 2.7 1.1 1.7 2 2.8 4.2 2.1 2.1-.6 4-2.4 6-3.1 2-.8 3 0 5.2.6.9.4 1.8.6 2.7.4.9-.2 1.8-.7 2.4-1.4 3.4-2.9 1.8-3.6 8.9-.8-1.4 5.3-4.5 20.5-4.5 20.8-1.3 4-1.9 8.2-2 12.4zm-26.1-34.7l-4.6 2c-.3 0-.5 0-.6-.3-.6-3 6.7-36.8 24.8-38 8.3-.6 14 14.2 16.5 22.1 1.7 5.1 2.9 10.2 3.8 15.4.4 3.7-10.1-3.1-13.2-2.5-1.2.4-1.7 1.4-3.5 2.8-1.7 1.5-2.6 1.5-4.1.9-1.8-1-3.9-1.2-5.9-.7-2.1.8-3.8 2.5-6 3.2-1.8.6-2.4-.7-3.4-2.2-1-1.7-2-3-3.8-2.8v.1zm29.8 18.9c.8-3.3 2.3-10.2 3.4-17.4 1.8.7 5.9 2.5 7.2 1.2.2-.2.4-.5.4-.8.1-.2.1-.5 0-.8-.7-4.2-1.7-8.4-3-12.5-2.6-8.9-8.9-26-18.2-25.4-18.9 1.3-26.3 35.5-25.7 38.5l.2.6.4.4.6.2.6-.1c1.1-.3 2.7-1.5 4.2-1.8.2 3.6.6 8.4 1.5 14.7-3.4-1.3-6.6-3-9.7-4.8-6.3-6.1-10.7-13.8-12.8-22.3-.7-2.9-1.1-5.7-1.1-8.5 3.6 2 7.3 3.8 11.2 5.3h.2l.2-.1.1-.1.1-.2c.7-5.7 3.2-11 6.9-15.3 3.8-4.2 8.9-7.1 14.5-8.2l.2-.2.1-.2v-.3l-.2-.1c-3.9-2.3-8-4.4-12.3-6.2-2.5-1.2-5.2-2.2-8-2.8.5-1.5.9-3 1-4.6 4-1.7 24.2.8 37.8-.6 2.1-.1 4.2-.5 6.2-1 12.2-.3 30.6 14.8 34 21.6 3.4 6.8 2.9 15.3-4.6 25.8-7.1 9.9-32.7 24.4-35.4 25.9v.1zm54.4 40.4c2.8-8.8-1.6-17-3.2-19.6l13.2-.3c1.7 1 3 2.6 3.7 4.5 1.1 2.8 1.7 5.8 1.7 8.7-3.9 1.8-11.3 5.1-15.4 6.6v.1zm16.3-7.2c-.1-3-.8-5.8-2-8.5-.8-1.9-2.2-3.5-4-4.5.8-.8 1.7-1.5 2.8-2 0 .6-.8 2 .2 2.2.9.1 1-.8 1.6-1.1.2-.1.7-.1.5.4-.2.5-.6 1.3-.2 2 .4.4.8.6 1.4.7 0 0-.7.6-1 1.2v.5l.4.3c.7.3 1.9-.4 2.6.4.3.3.2.6-.2.8-.9.6-1.1 1.2-.2 2 .4.2.8.6 1.1 1.1-.6 0-1.2.1-1.7.5l-.2.3-.1.3.1.4.2.3 1.8 1.1c-1 .6-2 1.2-3.1 1.5v.1zm24.3-13.9c-.9 3.4-18.9 11.5-20.2 12-.2-.8-1.4-1.1-2-1.5.6-.3 1.7-.2 1.9-.9.3-.7-1.3-1.9-1.7-2.3.4-.3 1.6-.9 1-2-.2-.4-.6-.8-1-.9-.4-.2-1-.3-1.4-.2h-.3c.4-.5 1.2-1.3.5-1.7-.7-.5-1.1 0-1.4-.7l4.6.7h.2l.1-.1v-.1c0 .8-.5-4.6 2.3-5.3 1.3-.1 2.6.1 3.8.5 1.1.5 2.2 1.3 3 2.3l.2.1h.2c.7-.1 6.9-1.4 9.3-.5.3 0 .9.3.9.5v.1z" fill="#000"/></svg>