<svg width="322" height="314" fill="none" xmlns="http://www.w3.org/2000/svg"><path d="M176.7 298l31.5-12M16.6 129.4l50.3 130M153.3 17.9L98 48.4M20.8 111.3l58.6-50M215.4 32.7l-41.7-16.2M252.4 65.5l-18.7-20.3M296.7 86.4l-25.9-8.9M276.3 180.4l-29.7 69M299.3 247l-37.9 17M99.3 52.5l115.4-14.3M84.5 217.9L73.8 259M20 127.3l60 70.9M157 291.3l-62.5-75.7M117.6 119.3l37.2-7.3M222.8 47.7l-29.6 98.9M277.4 126.5l-13.8-41.9M173 145.7L168 121M176.5 113.8l82.9 31.5M306.8 231.3l-13.1-49.7M220.1 251.2l-17-27.9M155 298.4l-73.3-24.8M139.7 195.5l-41.3 9M304 101l-7.9 25.4M165.9 121.1c6.3 0 11.4-5.1 11.4-11.3 0-6.3-5.1-11.4-11.4-11.4-6.3 0-11.3 5.1-11.3 11.4 0 6.2 5 11.3 11.3 11.3zM205.3 152.5L253.6 83M108.7 138.2l37.4 25.3M88.5 88.6l-.3-23.4M108 95.9L157 22M60.6 122.5l-36.9-3.1M88.5 146.1l-1 49.4M260 85.2c6.4 0 11.4-5.2 11.4-11.4s-5-11.3-11.4-11.3c-6.2 0-11.3 5.1-11.3 11.3 0 6.2 5.1 11.4 11.3 11.4zM307.5 101.4c6.2 0 11.3-5 11.3-11.4 0-6.2-5.1-11.3-11.3-11.3-6.3 0-11.4 5.1-11.4 11.3 0 6.4 5.1 11.4 11.4 11.4zM309.6 253.7c6.4 0 11.4-5.1 11.4-11.4 0-6.3-5-11.3-11.4-11.3-6.2 0-11.3 5-11.3 11.3 0 6.3 5.1 11.4 11.3 11.4zM226 48.2c6.3 0 11.4-5.1 11.4-11.4 0-6.2-5.1-11.3-11.4-11.3-6.3 0-11.3 5.1-11.3 11.3 0 6.3 5 11.4 11.3 11.4zM88 65.2c6.3 0 11.4-5.1 11.4-11.3 0-6.3-5.1-11.4-11.4-11.4-6.2 0-11.3 5.1-11.3 11.4 0 6.2 5.1 11.3 11.3 11.3zM12.4 130.2c6.2 0 11.3-5 11.3-11.3 0-6.3-5.1-11.4-11.3-11.4C6 107.5 1 112.6 1 118.9c0 6.3 5 11.3 11.4 11.3zM163.2 23.8c6.2 0 11.3-5.1 11.3-11.4 0-6.2-5.1-11.4-11.3-11.4-6.3 0-11.4 5.2-11.4 11.4 0 6.3 5.1 11.4 11.4 11.4zM165.9 313c6.3 0 11.4-5.2 11.4-11.4 0-6.3-5.1-11.4-11.4-11.4-6.3 0-11.3 5.1-11.3 11.4 0 6.2 5 11.4 11.3 11.4zM71 281.3c6.2 0 11.3-5.1 11.3-11.3 0-6.3-5.1-11.4-11.3-11.4-6.3 0-11.4 5.1-11.4 11.4 0 6.2 5.1 11.3 11.4 11.3zM87.3 218.2c6.3 0 11.4-5 11.4-11.3 0-6.3-5.1-11.4-11.4-11.4-6.3 0-11.3 5.1-11.3 11.4 0 6.3 5 11.3 11.3 11.3zM89 146.1c15.8 0 28.7-12.9 28.7-28.8 0-15.8-12.9-28.7-28.7-28.7-16 0-28.8 12.9-28.8 28.7 0 15.9 12.8 28.8 28.8 28.8z" stroke="#000" stroke-width="2" stroke-linecap="round" stroke-linejoin="round"/><path d="M79.7 116.7c0 2.4.9 4.8 2.7 6.5 1.7 1.8 4.1 2.8 6.6 2.8 2.4 0 4.7-1 6.5-2.8 1.7-1.7 2.7-4.1 2.7-6.5V112c0-2.4-1-4.8-2.7-6.5-1.8-1.7-4.1-2.7-6.5-2.7-2.5 0-4.9 1-6.6 2.7-1.8 1.7-2.7 4.1-2.7 6.5v4.7z" stroke="#000" stroke-width="2" stroke-linecap="round" stroke-linejoin="round"/><path d="M108.1 138.7c-5.2 4.8-12.1 7.4-19.1 7.4-7.2 0-14-2.6-19.3-7.4 1.6-3.7 4.3-7 7.7-9.3 3.4-2.3 7.4-3.4 11.5-3.4s8.1 1.1 11.5 3.4c3.5 2.3 6.1 5.6 7.7 9.3M79.7 110.9c.3-1.9 1.1-3.7 2.3-5.1 1.3-1.4 3-2.3 4.8-2.8 1.8-.4 3.8-.3 5.5.4 1.7.7 3.3 1.9 4.3 3.5-2.2 2.1-4.9 3.6-7.9 4.3-3 .7-6.1.6-9-.3zM181.1 229.4c23.4 0 42.3-18.9 42.3-42.3 0-23.3-18.9-42.2-42.3-42.2-23.3 0-42.2 18.9-42.2 42.2 0 23.4 18.9 42.3 42.2 42.3z" stroke="#000" stroke-width="2" stroke-linecap="round" stroke-linejoin="round"/><path d="M167.5 186.2c0 3.6 1.5 7 4 9.6 2.5 2.5 6 4 9.6 4 3.6 0 7.1-1.5 9.6-4 2.6-2.6 4-6 4-9.6v-6.8c0-3.6-1.4-7.1-4-9.6-2.5-2.6-6-4-9.6-4-3.6 0-7.1 1.4-9.6 4-2.5 2.5-4 6-4 9.6v6.8zM209.4 218.6c-7.8 7-17.8 10.8-28.2 10.8-10.5 0-20.5-3.8-28.3-10.8 2.3-5.6 6.2-10.3 11.3-13.6 5-3.4 10.8-5.2 16.9-5.2 6.1 0 11.9 1.7 16.9 5.1 5.1 3.3 9 8.1 11.4 13.7" stroke="#000" stroke-width="2" stroke-linecap="round" stroke-linejoin="round"/><path d="M167.6 177.6c.4-2.7 1.6-5.3 3.4-7.4 1.9-2 4.3-3.5 7-4.1 2.7-.6 5.6-.4 8.1.6 2.6 1 4.9 2.8 6.3 5.1-3.2 3.2-7.2 5.3-11.6 6.3-4.3 1.1-8.8.9-13.2-.5zM287 182.4c15.8 0 28.7-12.9 28.7-28.7 0-15.9-12.9-28.8-28.7-28.8-16 0-28.8 12.9-28.8 28.8 0 15.8 12.8 28.7 28.8 28.7z" stroke="#000" stroke-width="2" stroke-linecap="round" stroke-linejoin="round"/><path d="M277.7 153c0 2.5 1 4.8 2.7 6.5 1.7 1.8 4.1 2.8 6.6 2.8 2.4 0 4.8-1 6.5-2.8 1.7-1.7 2.7-4 2.7-6.5v-4.6c0-1.3-.2-2.4-.6-3.6-.5-1.2-1.2-2.2-2-3.1-.9-.9-1.9-1.6-3.1-2.1-1.1-.4-2.3-.6-3.5-.6-1.3 0-2.5.2-3.6.6-1.2.5-2.2 1.2-3.1 2.1-.8.9-1.5 1.9-2 3.1-.4 1.2-.6 2.3-.6 3.6v4.6z" stroke="#000" stroke-width="2" stroke-linecap="round" stroke-linejoin="round"/><path d="M306.2 175c-5.3 4.8-12.2 7.4-19.2 7.4-7.2 0-14-2.6-19.3-7.4 1.6-3.7 4.3-7 7.7-9.3 3.4-2.2 7.4-3.5 11.6-3.5 4 0 8 1.2 11.5 3.5 3.4 2.3 6.1 5.5 7.6 9.3M277.8 147.2c.2-1.9 1-3.6 2.2-5 1.3-1.4 3-2.4 4.8-2.9 1.9-.3 3.8-.3 5.5.5 1.7.6 3.3 1.8 4.3 3.4-2.2 2.1-4.9 3.6-7.9 4.3-2.9.7-6 .6-8.9-.3zM235.1 304.6c15.9 0 28.8-12.9 28.8-28.8S251 247 235.1 247s-28.7 12.9-28.7 28.8 12.8 28.8 28.7 28.8z" stroke="#000" stroke-width="2" stroke-linecap="round" stroke-linejoin="round"/><path d="M225.9 275.1c-.1 1.3.1 2.5.6 3.6.5 1.2 1.1 2.3 2 3.1.9.9 1.9 1.6 3 2 1.2.5 2.4.8 3.6.8 1.3 0 2.5-.3 3.6-.8 1.1-.4 2.2-1.1 3-2 .9-.8 1.6-1.9 2-3.1.5-1.1.7-2.3.7-3.6v-4.6c0-1.2-.2-2.5-.7-3.6-.4-1.1-1.1-2.2-2-3.1-.8-.8-1.9-1.6-3-2-1.1-.5-2.3-.8-3.6-.8-1.2 0-2.4.3-3.6.8-1.1.4-2.1 1.2-3 2-.9.9-1.5 2-2 3.1s-.7 2.4-.6 3.6v4.6z" stroke="#000" stroke-width="2" stroke-linecap="round" stroke-linejoin="round"/><path d="M254.3 297.2c-5.3 4.8-12.1 7.4-19.2 7.4s-13.9-2.6-19.2-7.4c1.6-3.8 4.2-7 7.7-9.3 3.4-2.3 7.4-3.5 11.5-3.5s8.1 1.2 11.5 3.5c3.4 2.2 6.1 5.5 7.7 9.3M226 269.3c.2-1.9 1-3.6 2.3-5 1.2-1.4 2.9-2.3 4.7-2.8 1.8-.5 3.8-.3 5.5.4 1.8.7 3.3 1.9 4.3 3.4-2.2 2.2-4.9 3.7-7.8 4.4-3 .7-6.1.5-9-.4zM299.2 237.8l-79.2-34M175.5 229l-8.1 61.3M173.1 101l45.7-55.4" stroke="#000" stroke-width="2" stroke-linecap="round" stroke-linejoin="round"/></svg>