<svg width="322" height="314" viewBox="0 0 322 314" fill="none" xmlns="http://www.w3.org/2000/svg">
<path d="M176.68 297.992L208.244 286.056" stroke="black" stroke-width="2" stroke-linecap="round" stroke-linejoin="round"/>
<path d="M16.6055 129.416L66.8695 259.376" stroke="black" stroke-width="2" stroke-linecap="round" stroke-linejoin="round"/>
<path d="M153.272 17.896L98 48.408" stroke="black" stroke-width="2" stroke-linecap="round" stroke-linejoin="round"/>
<path d="M20.7539 111.256L79.4299 61.26" stroke="black" stroke-width="2" stroke-linecap="round" stroke-linejoin="round"/>
<path d="M215.427 32.728L173.719 16.536" stroke="black" stroke-width="2" stroke-linecap="round" stroke-linejoin="round"/>
<path d="M252.399 65.472L233.703 45.184" stroke="black" stroke-width="2" stroke-linecap="round" stroke-linejoin="round"/>
<path d="M296.736 86.3999L270.828 77.5079" stroke="black" stroke-width="2" stroke-linecap="round" stroke-linejoin="round"/>
<path d="M276.303 180.392L246.551 249.384" stroke="black" stroke-width="2" stroke-linecap="round" stroke-linejoin="round"/>
<path d="M299.299 246.964L261.391 264.048" stroke="black" stroke-width="2" stroke-linecap="round" stroke-linejoin="round"/>
<path d="M99.3164 52.4919L214.748 38.2319" stroke="black" stroke-width="2" stroke-linecap="round" stroke-linejoin="round"/>
<path d="M84.4526 217.868L73.8086 258.976" stroke="black" stroke-width="2" stroke-linecap="round" stroke-linejoin="round"/>
<path d="M19.9219 127.348L79.9619 198.22" stroke="black" stroke-width="2" stroke-linecap="round" stroke-linejoin="round"/>
<path d="M157.051 291.344L94.5234 215.632" stroke="black" stroke-width="2" stroke-linecap="round" stroke-linejoin="round"/>
<path d="M117.621 119.26L154.765 111.972" stroke="black" stroke-width="2" stroke-linecap="round" stroke-linejoin="round"/>
<path d="M222.763 47.7159L193.227 146.636" stroke="black" stroke-width="2" stroke-linecap="round" stroke-linejoin="round"/>
<path d="M277.365 126.524L263.625 84.608" stroke="black" stroke-width="2" stroke-linecap="round" stroke-linejoin="round"/>
<path d="M172.97 145.668L168.098 120.924" stroke="black" stroke-width="2" stroke-linecap="round" stroke-linejoin="round"/>
<path d="M176.52 113.812L259.412 145.284" stroke="black" stroke-width="2" stroke-linecap="round" stroke-linejoin="round"/>
<path d="M306.767 231.316L293.727 181.616" stroke="black" stroke-width="2" stroke-linecap="round" stroke-linejoin="round"/>
<path d="M220.125 251.24L203.105 223.264" stroke="black" stroke-width="2" stroke-linecap="round" stroke-linejoin="round"/>
<path d="M155.007 298.384L81.7188 273.6" stroke="black" stroke-width="2" stroke-linecap="round" stroke-linejoin="round"/>
<path d="M139.687 195.488L98.3906 204.468" stroke="black" stroke-width="2" stroke-linecap="round" stroke-linejoin="round"/>
<path d="M304.085 100.924L296.117 126.392" stroke="black" stroke-width="2" stroke-linecap="round" stroke-linejoin="round"/>
<path d="M165.903 121.136C172.172 121.136 177.255 116.054 177.255 109.784C177.255 103.514 172.172 98.432 165.903 98.432C159.633 98.432 154.551 103.514 154.551 109.784C154.551 116.054 159.633 121.136 165.903 121.136Z" stroke="black" stroke-width="2" stroke-linecap="round" stroke-linejoin="round"/>
<path d="M205.297 152.464L253.601 83.132" stroke="black" stroke-width="2" stroke-linecap="round" stroke-linejoin="round"/>
<path d="M108.684 138.24L146.096 163.496" stroke="black" stroke-width="2" stroke-linecap="round" stroke-linejoin="round"/>
<path d="M88.4947 88.576L88.2227 65.228" stroke="black" stroke-width="2" stroke-linecap="round" stroke-linejoin="round"/>
<path d="M108.074 95.88L156.91 21.908" stroke="black" stroke-width="2" stroke-linecap="round" stroke-linejoin="round"/>
<path d="M60.6154 122.5L23.6914 119.376" stroke="black" stroke-width="2" stroke-linecap="round" stroke-linejoin="round"/>
<path d="M88.4994 146.1L87.5234 195.532" stroke="black" stroke-width="2" stroke-linecap="round" stroke-linejoin="round"/>
<path d="M260.086 85.172C266.356 85.172 271.438 80.0896 271.438 73.82C271.438 67.5504 266.356 62.468 260.086 62.468C253.817 62.468 248.734 67.5504 248.734 73.82C248.734 80.0896 253.817 85.172 260.086 85.172Z" stroke="black" stroke-width="2" stroke-linecap="round" stroke-linejoin="round"/>
<path d="M307.477 101.44C313.747 101.44 318.829 96.3576 318.829 90.088C318.829 83.8184 313.747 78.736 307.477 78.736C301.207 78.736 296.125 83.8184 296.125 90.088C296.125 96.3576 301.207 101.44 307.477 101.44Z" stroke="black" stroke-width="2" stroke-linecap="round" stroke-linejoin="round"/>
<path d="M309.649 253.652C315.918 253.652 321.001 248.57 321.001 242.3C321.001 236.03 315.918 230.948 309.649 230.948C303.379 230.948 298.297 236.03 298.297 242.3C298.297 248.57 303.379 253.652 309.649 253.652Z" stroke="black" stroke-width="2" stroke-linecap="round" stroke-linejoin="round"/>
<path d="M226.012 48.192C232.282 48.192 237.364 43.1096 237.364 36.84C237.364 30.5704 232.282 25.488 226.012 25.488C219.743 25.488 214.66 30.5704 214.66 36.84C214.66 43.1096 219.743 48.192 226.012 48.192Z" stroke="black" stroke-width="2" stroke-linecap="round" stroke-linejoin="round"/>
<path d="M88.0473 65.232C94.3169 65.232 99.3993 60.1496 99.3993 53.88C99.3993 47.6104 94.3169 42.528 88.0473 42.528C81.7777 42.528 76.6953 47.6104 76.6953 53.88C76.6953 60.1496 81.7777 65.232 88.0473 65.232Z" stroke="black" stroke-width="2" stroke-linecap="round" stroke-linejoin="round"/>
<path d="M12.352 130.24C18.6216 130.24 23.704 125.158 23.704 118.888C23.704 112.618 18.6216 107.536 12.352 107.536C6.0824 107.536 1 112.618 1 118.888C1 125.158 6.0824 130.24 12.352 130.24Z" stroke="black" stroke-width="2" stroke-linecap="round" stroke-linejoin="round"/>
<path d="M163.165 23.788C169.434 23.788 174.517 18.7056 174.517 12.436C174.517 6.16639 169.434 1.08398 163.165 1.08398C156.895 1.08398 151.812 6.16639 151.812 12.436C151.812 18.7056 156.895 23.788 163.165 23.788Z" stroke="black" stroke-width="2" stroke-linecap="round" stroke-linejoin="round"/>
<path d="M165.903 312.916C172.172 312.916 177.255 307.834 177.255 301.564C177.255 295.294 172.172 290.212 165.903 290.212C159.633 290.212 154.551 295.294 154.551 301.564C154.551 307.834 159.633 312.916 165.903 312.916Z" stroke="black" stroke-width="2" stroke-linecap="round" stroke-linejoin="round"/>
<path d="M70.9653 281.316C77.2349 281.316 82.3173 276.234 82.3173 269.964C82.3173 263.694 77.2349 258.612 70.9653 258.612C64.6957 258.612 59.6133 263.694 59.6133 269.964C59.6133 276.234 64.6957 281.316 70.9653 281.316Z" stroke="black" stroke-width="2" stroke-linecap="round" stroke-linejoin="round"/>
<path d="M87.3012 218.232C93.5708 218.232 98.6532 213.15 98.6532 206.88C98.6532 200.61 93.5708 195.528 87.3012 195.528C81.0316 195.528 75.9492 200.61 75.9492 206.88C75.9492 213.15 81.0316 218.232 87.3012 218.232Z" stroke="black" stroke-width="2" stroke-linecap="round" stroke-linejoin="round"/>
<path d="M88.9202 146.104C104.806 146.104 117.684 133.226 117.684 117.34C117.684 101.454 104.806 88.5759 88.9202 88.5759C73.0343 88.5759 60.1562 101.454 60.1562 117.34C60.1562 133.226 73.0343 146.104 88.9202 146.104Z" stroke="black" stroke-width="2" stroke-linecap="round" stroke-linejoin="round"/>
<path d="M79.6641 116.672C79.6641 119.127 80.6393 121.481 82.3753 123.217C84.1109 124.953 86.4653 125.928 88.9201 125.928C91.3749 125.928 93.7293 124.953 95.4649 123.217C97.2009 121.481 98.1761 119.127 98.1761 116.672V112.044C98.1761 109.589 97.2009 107.235 95.4649 105.499C93.7293 103.763 91.3749 102.788 88.9201 102.788C86.4653 102.788 84.1109 103.763 82.3753 105.499C80.6393 107.235 79.6641 109.589 79.6641 112.044V116.672Z" stroke="black" stroke-width="2" stroke-linecap="round" stroke-linejoin="round"/>
<path d="M108.147 138.732C102.868 143.476 96.0208 146.1 88.9232 146.1C81.8256 146.1 74.9788 143.476 69.6992 138.732C71.2796 134.941 73.9464 131.702 77.3632 129.422C80.78 127.142 84.7948 125.924 88.9024 125.921C93.01 125.917 97.0268 127.129 100.448 129.403C103.868 131.676 106.54 134.911 108.127 138.7" stroke="black" stroke-width="2" stroke-linecap="round" stroke-linejoin="round"/>
<path d="M79.7383 110.852C79.9807 108.985 80.7871 107.237 82.0491 105.84C83.3111 104.443 84.9691 103.464 86.8015 103.034C88.6343 102.604 90.5547 102.742 92.3067 103.432C94.0583 104.121 95.5583 105.328 96.6063 106.892C94.4155 109.016 91.6899 110.505 88.7195 111.203C85.7491 111.9 82.6451 111.779 79.7383 110.852Z" stroke="black" stroke-width="2" stroke-linecap="round" stroke-linejoin="round"/>
<path d="M181.131 229.416C204.475 229.416 223.399 210.492 223.399 187.148C223.399 163.804 204.475 144.88 181.131 144.88C157.787 144.88 138.863 163.804 138.863 187.148C138.863 210.492 157.787 229.416 181.131 229.416Z" stroke="black" stroke-width="2" stroke-linecap="round" stroke-linejoin="round"/>
<path d="M167.531 186.168C167.531 189.775 168.964 193.234 171.514 195.785C174.065 198.335 177.524 199.768 181.131 199.768C184.738 199.768 188.197 198.335 190.748 195.785C193.298 193.234 194.731 189.775 194.731 186.168V179.368C194.731 175.761 193.298 172.302 190.748 169.751C188.197 167.201 184.738 165.768 181.131 165.768C177.524 165.768 174.065 167.201 171.514 169.751C168.964 172.302 167.531 175.761 167.531 179.368V186.168Z" stroke="black" stroke-width="2" stroke-linecap="round" stroke-linejoin="round"/>
<path d="M209.398 218.6C201.64 225.57 191.58 229.426 181.15 229.426C170.721 229.426 160.66 225.57 152.902 218.6C155.224 213.028 159.142 208.268 164.162 204.918C169.183 201.568 175.083 199.778 181.118 199.773C187.154 199.768 193.057 201.548 198.083 204.889C203.11 208.231 207.035 212.984 209.366 218.552" stroke="black" stroke-width="2" stroke-linecap="round" stroke-linejoin="round"/>
<path d="M167.645 177.616C167.998 174.869 169.181 172.295 171.037 170.239C172.893 168.183 175.332 166.743 178.028 166.11C180.725 165.478 183.55 165.684 186.126 166.701C188.703 167.718 190.907 169.496 192.445 171.8C189.223 174.922 185.215 177.111 180.848 178.135C176.481 179.16 171.918 178.98 167.645 177.616Z" stroke="black" stroke-width="2" stroke-linecap="round" stroke-linejoin="round"/>
<path d="M286.936 182.424C302.822 182.424 315.7 169.546 315.7 153.66C315.7 137.774 302.822 124.896 286.936 124.896C271.05 124.896 258.172 137.774 258.172 153.66C258.172 169.546 271.05 182.424 286.936 182.424Z" stroke="black" stroke-width="2" stroke-linecap="round" stroke-linejoin="round"/>
<path d="M277.684 153C277.684 155.455 278.659 157.81 280.395 159.546C282.131 161.283 284.486 162.258 286.942 162.258C289.397 162.258 291.752 161.283 293.488 159.546C295.224 157.81 296.2 155.455 296.2 153V148.364C296.225 147.132 296.005 145.908 295.551 144.763C295.098 143.618 294.42 142.575 293.558 141.695C292.696 140.815 291.668 140.116 290.532 139.639C289.396 139.162 288.177 138.916 286.946 138.916C285.714 138.916 284.494 139.162 283.359 139.639C282.224 140.116 281.195 140.815 280.333 141.695C279.471 142.575 278.794 143.618 278.34 144.763C277.886 145.908 277.666 147.132 277.692 148.364L277.684 153Z" stroke="black" stroke-width="2" stroke-linecap="round" stroke-linejoin="round"/>
<path d="M306.167 175.052C300.886 179.796 294.039 182.42 286.941 182.42C279.842 182.42 272.995 179.796 267.715 175.052C269.295 171.261 271.962 168.022 275.379 165.742C278.796 163.462 282.81 162.244 286.918 162.241C291.026 162.237 295.042 163.449 298.463 165.723C301.884 167.996 304.556 171.231 306.143 175.02" stroke="black" stroke-width="2" stroke-linecap="round" stroke-linejoin="round"/>
<path d="M277.762 147.168C278.004 145.301 278.81 143.553 280.071 142.156C281.333 140.759 282.991 139.78 284.824 139.35C286.656 138.92 288.576 139.06 290.328 139.75C292.079 140.44 293.579 141.648 294.626 143.212C292.436 145.336 289.711 146.826 286.741 147.522C283.771 148.219 280.668 148.097 277.762 147.168Z" stroke="black" stroke-width="2" stroke-linecap="round" stroke-linejoin="round"/>
<path d="M235.123 304.552C251.009 304.552 263.887 291.674 263.887 275.788C263.887 259.902 251.009 247.024 235.123 247.024C219.237 247.024 206.359 259.902 206.359 275.788C206.359 291.674 219.237 304.552 235.123 304.552Z" stroke="black" stroke-width="2" stroke-linecap="round" stroke-linejoin="round"/>
<path d="M225.869 275.124C225.844 276.356 226.064 277.58 226.518 278.725C226.971 279.87 227.649 280.913 228.51 281.793C229.372 282.673 230.401 283.372 231.537 283.849C232.672 284.326 233.892 284.572 235.123 284.572C236.355 284.572 237.574 284.326 238.71 283.849C239.845 283.372 240.874 282.673 241.736 281.793C242.598 280.913 243.275 279.87 243.729 278.725C244.182 277.58 244.403 276.356 244.377 275.124V270.496C244.403 269.264 244.182 268.04 243.729 266.895C243.275 265.75 242.598 264.707 241.736 263.827C240.874 262.947 239.845 262.248 238.71 261.771C237.574 261.294 236.355 261.048 235.123 261.048C233.892 261.048 232.672 261.294 231.537 261.771C230.401 262.248 229.372 262.947 228.51 263.827C227.649 264.707 226.971 265.75 226.518 266.895C226.064 268.04 225.844 269.264 225.869 270.496V275.124Z" stroke="black" stroke-width="2" stroke-linecap="round" stroke-linejoin="round"/>
<path d="M254.35 297.184C249.071 301.928 242.224 304.552 235.126 304.552C228.029 304.552 221.182 301.928 215.902 297.184C217.482 293.392 220.148 290.153 223.565 287.873C226.982 285.593 230.996 284.374 235.104 284.371C239.211 284.368 243.228 285.579 246.648 287.854C250.069 290.128 252.74 293.363 254.326 297.152" stroke="black" stroke-width="2" stroke-linecap="round" stroke-linejoin="round"/>
<path d="M225.945 269.3C226.187 267.433 226.993 265.685 228.255 264.288C229.517 262.891 231.175 261.912 233.007 261.482C234.84 261.052 236.76 261.192 238.512 261.882C240.263 262.572 241.762 263.78 242.809 265.344C240.619 267.467 237.894 268.957 234.924 269.653C231.955 270.35 228.851 270.228 225.945 269.3Z" stroke="black" stroke-width="2" stroke-linecap="round" stroke-linejoin="round"/>
<path d="M299.216 237.824L219.984 203.82" stroke="black" stroke-width="2" stroke-linecap="round" stroke-linejoin="round"/>
<path d="M175.465 229.04L167.445 290.316" stroke="black" stroke-width="2" stroke-linecap="round" stroke-linejoin="round"/>
<path d="M173.125 101.024L218.797 45.6" stroke="black" stroke-width="2" stroke-linecap="round" stroke-linejoin="round"/>
</svg>
